<svg width="330" height="264" viewBox="0 0 330 264" fill="none" xmlns="http://www.w3.org/2000/svg">
<circle cx="88" cy="176" r="86.625" fill="#78E08F" stroke="#78E08F" stroke-width="2.75"/>
<mask id="mask0" mask-type="alpha" maskUnits="userSpaceOnUse" x="0" y="0" width="363" height="264">
<path fill-rule="evenodd" clip-rule="evenodd" d="M363 0H85.25V88.0421C37.9214 89.495 0 128.319 0 176C0 223.681 37.9214 262.505 85.25 263.958V264H88H363V0Z" fill="#C4C4C4"/>
</mask>
<g mask="url(#mask0)">
<path d="M203.204 87.2561L230.456 139.791C231.396 141.603 230.805 143.832 229.091 144.94L93.1381 232.849L56.9139 181.3L203.204 87.2561Z" fill="#F2C94C"/>
<path d="M34.3445 147.021L161.407 69.144L203.204 87.2561L57.9588 182.345L33.6356 150.887C32.6746 149.644 33.0051 147.842 34.3445 147.021Z" fill="#FFE493"/>
<path d="M41.9365 171.199L32.5322 149.255L57.6104 181.996L92.7897 232.849L81.6438 226.232L41.9365 171.199Z" fill="#DAB850"/>
<mask id="path-6-outside-1" maskUnits="userSpaceOnUse" x="-52.2002" y="161.158" width="192" height="159" fill="black">
<rect fill="white" x="-52.2002" y="161.158" width="192" height="159"/>
<path fill-rule="evenodd" clip-rule="evenodd" d="M-49.5 251.262C-31.0918 246.595 15.4561 232.654 54.3812 214.225C55.9821 212.964 59.8957 208.756 62.7431 202.01C63.6141 199.946 64.2995 197.932 64.9621 195.986C67.0071 189.977 68.8348 184.607 75.2319 180.379C79.2813 177.703 84.3584 175.32 89.3111 172.996C94.7177 170.458 99.9762 167.991 103.588 165.287C110.508 160.105 113.869 165.524 111.598 169.457C111.113 170.298 110.809 171.042 110.523 171.742C109.471 174.319 108.657 176.31 99.93 180.379C95.3665 182.506 94.3829 184.375 94.8911 185.82C95.7763 188.338 99.317 188.181 101.955 187.776L112.49 186.158L124.113 184.381C125.844 184.116 127.362 183.079 128.238 181.562L132.529 174.13C134.319 172.541 137.807 170.885 137.44 176.965C137.193 181.04 136.855 184.12 136.586 186.061C133.408 190.887 126.09 199.954 120.132 200.631C121.409 200.979 125.496 200.352 131.626 195.058C134.211 192.826 135.689 190.969 136.474 189.499L136.984 192.858C134.905 198.578 130.482 207.827 125.326 209.856C126.65 209.862 130.435 208.198 134.986 201.498C136.13 199.813 136.929 198.36 137.467 197.117L137.788 202.129C137.843 202.988 137.705 203.849 137.384 204.647L135.033 210.504C134.931 210.757 134.811 211.002 134.675 211.238L133.335 213.56C132.123 215.122 130.607 216.348 128.599 216.942C129.404 217.016 130.958 216.233 132.402 215.176L130.451 218.554C130.004 219.329 129.382 219.99 128.636 220.483L115.911 228.893C115.276 229.313 114.566 229.602 113.818 229.748C102.611 231.937 80.7632 236.783 74.654 240.35C66.7519 244.965 -12.6217 305.328 -23.9299 315.842L-49.5 251.262Z"/>
</mask>
<path fill-rule="evenodd" clip-rule="evenodd" d="M-49.5 251.262C-31.0918 246.595 15.4561 232.654 54.3812 214.225C55.9821 212.964 59.8957 208.756 62.7431 202.01C63.6141 199.946 64.2995 197.932 64.9621 195.986C67.0071 189.977 68.8348 184.607 75.2319 180.379C79.2813 177.703 84.3584 175.32 89.3111 172.996C94.7177 170.458 99.9762 167.991 103.588 165.287C110.508 160.105 113.869 165.524 111.598 169.457C111.113 170.298 110.809 171.042 110.523 171.742C109.471 174.319 108.657 176.31 99.93 180.379C95.3665 182.506 94.3829 184.375 94.8911 185.82C95.7763 188.338 99.317 188.181 101.955 187.776L112.49 186.158L124.113 184.381C125.844 184.116 127.362 183.079 128.238 181.562L132.529 174.13C134.319 172.541 137.807 170.885 137.44 176.965C137.193 181.04 136.855 184.12 136.586 186.061C133.408 190.887 126.09 199.954 120.132 200.631C121.409 200.979 125.496 200.352 131.626 195.058C134.211 192.826 135.689 190.969 136.474 189.499L136.984 192.858C134.905 198.578 130.482 207.827 125.326 209.856C126.65 209.862 130.435 208.198 134.986 201.498C136.13 199.813 136.929 198.36 137.467 197.117L137.788 202.129C137.843 202.988 137.705 203.849 137.384 204.647L135.033 210.504C134.931 210.757 134.811 211.002 134.675 211.238L133.335 213.56C132.123 215.122 130.607 216.348 128.599 216.942C129.404 217.016 130.958 216.233 132.402 215.176L130.451 218.554C130.004 219.329 129.382 219.99 128.636 220.483L115.911 228.893C115.276 229.313 114.566 229.602 113.818 229.748C102.611 231.937 80.7632 236.783 74.654 240.35C66.7519 244.965 -12.6217 305.328 -23.9299 315.842L-49.5 251.262Z" fill="white"/>
<path d="M54.3812 214.225L55.6062 215.781L55.4306 215.919L55.2285 216.015L54.3812 214.225ZM-49.5 251.262L-51.341 251.991L-52.1703 249.896L-49.9866 249.343L-49.5 251.262ZM62.7431 202.01L60.9189 201.24V201.24L62.7431 202.01ZM64.9621 195.986L66.8365 196.624L64.9621 195.986ZM75.2319 180.379L74.1402 178.727V178.727L75.2319 180.379ZM89.3111 172.996L88.47 171.203L89.3111 172.996ZM103.588 165.287L104.775 166.871V166.871L103.588 165.287ZM111.598 169.457L109.884 168.467V168.467L111.598 169.457ZM110.523 171.742L108.69 170.994V170.994L110.523 171.742ZM99.93 180.379L100.767 182.173H100.767L99.93 180.379ZM94.8911 185.82L93.0232 186.477V186.477L94.8911 185.82ZM101.955 187.776L101.654 185.819L101.955 187.776ZM112.49 186.158L112.189 184.201L112.19 184.201L112.49 186.158ZM124.113 184.381L124.412 186.338H124.412L124.113 184.381ZM128.238 181.562L129.952 182.552H129.952L128.238 181.562ZM132.529 174.13L130.814 173.14L130.975 172.862L131.215 172.649L132.529 174.13ZM137.44 176.965L139.416 177.084V177.084L137.44 176.965ZM136.586 186.061L138.547 186.333L138.486 186.776L138.239 187.15L136.586 186.061ZM120.132 200.631L119.611 202.541L119.909 198.663L120.132 200.631ZM131.626 195.058L130.332 193.559H130.332L131.626 195.058ZM136.474 189.499L134.727 188.567L137.536 183.302L138.431 189.202L136.474 189.499ZM136.984 192.858L138.941 192.561L139.017 193.06L138.845 193.534L136.984 192.858ZM125.326 209.856L125.317 211.836L124.601 208.013L125.326 209.856ZM134.986 201.498L133.348 200.385H133.348L134.986 201.498ZM137.467 197.117L135.65 196.33L139.443 196.99L137.467 197.117ZM137.788 202.129L139.764 202.003L139.764 202.003L137.788 202.129ZM137.384 204.647L135.547 203.91L135.547 203.91L137.384 204.647ZM135.033 210.504L136.87 211.241L136.87 211.242L135.033 210.504ZM134.675 211.238L136.39 212.228H136.39L134.675 211.238ZM133.335 213.56L135.049 214.55L134.982 214.667L134.899 214.773L133.335 213.56ZM128.599 216.942L128.418 218.914L128.037 215.044L128.599 216.942ZM132.402 215.176L131.232 213.578L134.117 216.166L132.402 215.176ZM130.451 218.554L128.736 217.564H128.736L130.451 218.554ZM128.636 220.483L129.727 222.135L129.727 222.135L128.636 220.483ZM115.911 228.893L117.003 230.545L117.003 230.545L115.911 228.893ZM113.818 229.748L114.198 231.691L114.198 231.691L113.818 229.748ZM74.654 240.35L73.6556 238.641L74.654 240.35ZM-23.9299 315.842L-22.5817 317.292L-24.704 319.266L-25.7708 316.571L-23.9299 315.842ZM55.2285 216.015C16.1475 234.518 -30.5331 248.496 -49.0135 253.181L-49.9866 249.343C-31.6504 244.694 14.7647 230.791 53.534 212.436L55.2285 216.015ZM64.5673 202.78C61.6002 209.81 57.4903 214.297 55.6062 215.781L53.1562 212.67C54.4738 211.632 58.1912 207.703 60.9189 201.24L64.5673 202.78ZM66.8365 196.624C66.1767 198.562 65.4699 200.641 64.5673 202.78L60.9189 201.24C61.7583 199.251 62.4224 197.303 63.0877 195.348L66.8365 196.624ZM76.3236 182.031C70.5429 185.851 68.8842 190.607 66.8365 196.624L63.0877 195.348C65.13 189.347 67.1267 183.362 74.1402 178.727L76.3236 182.031ZM90.1523 174.788C85.1644 177.129 80.229 179.45 76.3236 182.031L74.1402 178.727C78.3335 175.956 83.5524 173.511 88.47 171.203L90.1523 174.788ZM104.775 166.871C100.965 169.724 95.4927 172.282 90.1523 174.788L88.47 171.203C93.9427 168.635 98.9877 166.257 102.401 163.702L104.775 166.871ZM109.884 168.467C110.661 167.121 110.281 165.904 109.763 165.468C109.406 165.166 107.955 164.49 104.775 166.871L102.401 163.702C106.14 160.902 109.83 160.344 112.316 162.44C114.641 164.401 114.807 167.86 113.313 170.447L109.884 168.467ZM108.69 170.994C108.976 170.294 109.324 169.437 109.884 168.467L113.313 170.447C112.902 171.159 112.643 171.789 112.356 172.491L108.69 170.994ZM99.0934 178.584C103.405 176.574 105.562 175.164 106.755 174.053C107.851 173.031 108.186 172.227 108.69 170.994L112.356 172.491C111.807 173.835 111.209 175.315 109.454 176.95C107.796 178.495 105.182 180.115 100.767 182.173L99.0934 178.584ZM93.0232 186.477C92.4961 184.978 92.876 183.437 93.9804 182.096C95.0089 180.848 96.7067 179.697 99.0934 178.584L100.767 182.173C98.5898 183.188 97.5141 184.035 97.0369 184.614C96.8132 184.886 96.7648 185.046 96.7546 185.092C96.7476 185.123 96.7484 185.133 96.7589 185.163L93.0232 186.477ZM102.255 189.733C100.89 189.943 99.0856 190.126 97.4346 189.846C95.7643 189.563 93.8063 188.704 93.0232 186.477L96.7589 185.163C96.8611 185.454 97.1161 185.776 98.0969 185.942C99.0969 186.112 100.382 186.014 101.654 185.819L102.255 189.733ZM112.79 188.115L102.255 189.733L101.654 185.819L112.189 184.201L112.79 188.115ZM124.412 186.338L112.789 188.115L112.19 184.201L123.814 182.424L124.412 186.338ZM129.952 182.552C128.776 184.59 126.738 185.983 124.412 186.338L123.814 182.424C124.951 182.25 125.948 181.569 126.523 180.572L129.952 182.552ZM134.244 175.12L129.952 182.552L126.523 180.572L130.814 173.14L134.244 175.12ZM135.463 176.845C135.547 175.455 135.385 174.793 135.273 174.545C135.228 174.444 135.218 174.472 135.293 174.532C135.374 174.595 135.464 174.625 135.518 174.632C135.564 174.639 135.4 174.615 134.982 174.822C134.602 175.01 134.193 175.3 133.843 175.611L131.215 172.649C131.76 172.165 132.458 171.653 133.225 171.273C133.953 170.913 134.973 170.557 136.069 170.711C137.337 170.889 138.333 171.694 138.885 172.922C139.38 174.023 139.516 175.435 139.416 177.084L135.463 176.845ZM134.625 185.79C134.886 183.903 135.22 180.874 135.463 176.845L139.416 177.084C139.167 181.207 138.823 184.338 138.547 186.333L134.625 185.79ZM119.909 198.663C120.975 198.542 122.253 198.02 123.692 197.086C125.114 196.164 126.58 194.915 128.005 193.498C130.858 190.661 133.398 187.301 134.932 184.972L138.239 187.15C136.595 189.647 133.888 193.233 130.798 196.306C129.251 197.843 127.572 199.29 125.847 200.409C124.139 201.516 122.268 202.381 120.356 202.598L119.909 198.663ZM132.921 196.556C129.725 199.316 126.984 200.927 124.791 201.8C122.687 202.637 120.86 202.882 119.611 202.541L120.653 198.721C120.62 198.712 120.821 198.762 121.329 198.691C121.807 198.624 122.476 198.459 123.327 198.121C125.029 197.443 127.398 196.094 130.332 193.559L132.921 196.556ZM138.221 190.431C137.284 192.186 135.619 194.226 132.921 196.556L130.332 193.559C132.803 191.426 134.094 189.753 134.727 188.567L138.221 190.431ZM135.026 193.155L134.516 189.796L138.431 189.202L138.941 192.561L135.026 193.155ZM124.601 208.013C126.53 207.254 128.637 204.944 130.62 201.707C132.541 198.573 134.113 194.96 135.123 192.182L138.845 193.534C137.775 196.476 136.097 200.348 133.997 203.776C131.96 207.1 129.277 210.428 126.051 211.698L124.601 208.013ZM136.624 202.61C134.252 206.103 132.022 208.369 130.129 209.779C128.313 211.133 126.611 211.841 125.317 211.836L125.335 207.876C125.301 207.876 125.508 207.872 125.98 207.672C126.424 207.483 127.028 207.152 127.763 206.604C129.231 205.509 131.17 203.593 133.348 200.385L136.624 202.61ZM139.284 197.903C138.687 199.282 137.823 200.845 136.624 202.61L133.348 200.385C134.437 198.782 135.171 197.437 135.65 196.33L139.284 197.903ZM135.812 202.255L135.491 197.243L139.443 196.99L139.764 202.003L135.812 202.255ZM135.547 203.91C135.758 203.385 135.848 202.82 135.812 202.255L139.764 202.003C139.838 203.157 139.652 204.312 139.222 205.385L135.547 203.91ZM133.195 209.766L135.547 203.91L139.222 205.385L136.87 211.241L133.195 209.766ZM132.96 210.248C133.05 210.093 133.128 209.932 133.195 209.766L136.87 211.242C136.733 211.581 136.573 211.911 136.39 212.228L132.96 210.248ZM131.62 212.57L132.96 210.248L136.39 212.228L135.049 214.55L131.62 212.57ZM134.899 214.773C133.498 216.581 131.656 218.103 129.161 218.841L128.037 215.044C129.557 214.594 130.749 213.664 131.77 212.347L134.899 214.773ZM128.78 214.971C128.641 214.958 128.625 214.988 128.791 214.941C128.935 214.9 129.143 214.823 129.41 214.696C129.943 214.442 130.586 214.051 131.232 213.578L133.572 216.773C132.774 217.357 131.918 217.888 131.112 218.271C130.41 218.605 129.396 219.004 128.418 218.914L128.78 214.971ZM128.736 217.564L130.687 214.186L134.117 216.166L132.166 219.544L128.736 217.564ZM127.544 218.831C128.034 218.507 128.443 218.073 128.736 217.564L132.166 219.544C131.565 220.585 130.73 221.472 129.727 222.135L127.544 218.831ZM114.819 227.241L127.544 218.831L129.727 222.135L117.003 230.545L114.819 227.241ZM113.439 227.804C113.935 227.708 114.402 227.517 114.819 227.241L117.003 230.545C116.149 231.109 115.197 231.496 114.198 231.691L113.439 227.804ZM73.6556 238.641C75.3843 237.631 78.075 236.605 81.1692 235.611C84.3062 234.604 88.0039 233.584 91.8385 232.613C99.5098 230.67 107.811 228.904 113.439 227.804L114.198 231.691C108.619 232.781 100.392 234.532 92.8105 236.452C89.0186 237.412 85.4084 238.409 82.3804 239.382C79.3097 240.368 76.9784 241.286 75.6525 242.06L73.6556 238.641ZM-25.2781 314.392C-19.5347 309.052 3.23674 291.259 25.4379 274.31C36.5654 265.815 47.5889 257.503 56.3275 251.024C65.0045 244.59 71.5607 239.864 73.6556 238.641L75.6525 242.06C73.7963 243.144 67.4674 247.694 58.6861 254.205C49.9662 260.67 38.958 268.971 27.8408 277.458C5.55257 294.473 -17.0169 312.118 -22.5817 317.292L-25.2781 314.392ZM-47.6591 250.533L-22.0889 315.113L-25.7708 316.571L-51.341 251.991L-47.6591 250.533Z" fill="black" mask="url(#path-6-outside-1)"/>
<mask id="path-8-outside-2" maskUnits="userSpaceOnUse" x="153.741" y="-69.3157" width="252" height="158" fill="black">
<rect fill="white" x="153.741" y="-69.3157" width="252" height="158"/>
<path fill-rule="evenodd" clip-rule="evenodd" d="M398.75 -31.1361C380.342 -26.4693 278.085 17.188 239.16 35.6173C237.559 36.878 233.646 41.086 230.798 47.8323C229.927 49.896 229.242 51.9099 228.579 53.8568C226.534 59.8653 224.706 65.2357 218.309 69.4635C214.26 72.1398 209.183 74.5224 204.23 76.8467C198.823 79.3839 193.565 81.8515 189.953 84.5558C183.033 89.7374 179.672 84.3182 181.943 80.3852C182.428 79.5444 182.732 78.8005 183.018 78.0999C184.071 75.523 184.884 73.5319 193.611 69.4635C198.175 67.3362 199.158 65.4671 198.65 64.022C197.765 61.5046 194.224 61.6613 191.587 62.0664L181.052 63.6846L169.428 65.4614C167.697 65.7261 166.179 66.763 165.303 68.28L161.012 75.7126C159.222 77.301 155.734 78.9579 156.102 72.8774C156.348 68.802 156.687 65.7221 156.955 63.781C160.133 58.9551 167.451 49.8886 173.409 49.2116C172.132 48.8633 168.045 49.4902 161.915 54.7845C159.33 57.0166 157.852 58.873 157.067 60.3435L156.558 56.984C158.636 51.2637 163.06 42.0157 168.215 39.9866C166.891 39.9807 163.106 41.644 158.555 48.3446C157.411 50.0288 156.612 51.4823 156.074 52.7255L155.753 47.7133C155.698 46.8542 155.836 45.9938 156.157 45.195L158.509 39.3387C158.61 39.0857 158.73 38.8401 158.866 38.604L160.208 36.2793C161.419 34.7185 162.935 33.4936 164.942 32.8999C164.137 32.8259 162.584 33.6086 161.14 34.6659L163.09 31.2879C163.537 30.5129 164.159 29.8527 164.905 29.3593L177.63 20.9494C178.265 20.5296 178.975 20.2406 179.723 20.0947C190.93 17.9056 212.778 13.0594 218.887 9.49191C226.789 4.87736 306.163 -55.486 317.471 -66L398.75 -31.1361Z"/>
</mask>
<path fill-rule="evenodd" clip-rule="evenodd" d="M398.75 -31.1361C380.342 -26.4693 278.085 17.188 239.16 35.6173C237.559 36.878 233.646 41.086 230.798 47.8323C229.927 49.896 229.242 51.9099 228.579 53.8568C226.534 59.8653 224.706 65.2357 218.309 69.4635C214.26 72.1398 209.183 74.5224 204.23 76.8467C198.823 79.3839 193.565 81.8515 189.953 84.5558C183.033 89.7374 179.672 84.3182 181.943 80.3852C182.428 79.5444 182.732 78.8005 183.018 78.0999C184.071 75.523 184.884 73.5319 193.611 69.4635C198.175 67.3362 199.158 65.4671 198.65 64.022C197.765 61.5046 194.224 61.6613 191.587 62.0664L181.052 63.6846L169.428 65.4614C167.697 65.7261 166.179 66.763 165.303 68.28L161.012 75.7126C159.222 77.301 155.734 78.9579 156.102 72.8774C156.348 68.802 156.687 65.7221 156.955 63.781C160.133 58.9551 167.451 49.8886 173.409 49.2116C172.132 48.8633 168.045 49.4902 161.915 54.7845C159.33 57.0166 157.852 58.873 157.067 60.3435L156.558 56.984C158.636 51.2637 163.06 42.0157 168.215 39.9866C166.891 39.9807 163.106 41.644 158.555 48.3446C157.411 50.0288 156.612 51.4823 156.074 52.7255L155.753 47.7133C155.698 46.8542 155.836 45.9938 156.157 45.195L158.509 39.3387C158.61 39.0857 158.73 38.8401 158.866 38.604L160.208 36.2793C161.419 34.7185 162.935 33.4936 164.942 32.8999C164.137 32.8259 162.584 33.6086 161.14 34.6659L163.09 31.2879C163.537 30.5129 164.159 29.8527 164.905 29.3593L177.63 20.9494C178.265 20.5296 178.975 20.2406 179.723 20.0947C190.93 17.9056 212.778 13.0594 218.887 9.49191C226.789 4.87736 306.163 -55.486 317.471 -66L398.75 -31.1361Z" fill="white"/>
<path d="M239.16 35.6173L237.935 34.0617L238.111 33.9234L238.313 33.8277L239.16 35.6173ZM398.75 -31.1361L399.53 -32.9557L404.9 -30.6526L399.237 -29.2168L398.75 -31.1361ZM230.798 47.8323L232.622 48.6022L230.798 47.8323ZM228.579 53.8568L226.705 53.2188L228.579 53.8568ZM218.309 69.4635L219.401 71.1154L218.309 69.4635ZM204.23 76.8467L203.389 75.0542L204.23 76.8467ZM189.953 84.5558L188.767 82.9709V82.9709L189.953 84.5558ZM181.943 80.3852L183.658 81.3752V81.3752L181.943 80.3852ZM183.018 78.0999L184.851 78.8485V78.8485L183.018 78.0999ZM193.611 69.4635L192.775 67.6689V67.6689L193.611 69.4635ZM198.65 64.022L200.518 63.3652L198.65 64.022ZM191.587 62.0664L191.887 64.0235H191.887L191.587 62.0664ZM181.052 63.6846L181.352 65.6416L181.351 65.6418L181.052 63.6846ZM169.428 65.4614L169.129 63.5042L169.129 63.5042L169.428 65.4614ZM165.303 68.28L167.018 69.27L165.303 68.28ZM161.012 75.7126L162.727 76.7026L162.567 76.9805L162.326 77.1936L161.012 75.7126ZM156.102 72.8774L154.125 72.7579L154.125 72.7579L156.102 72.8774ZM156.955 63.781L154.994 63.5094L155.056 63.066L155.302 62.6921L156.955 63.781ZM173.409 49.2116L173.93 47.3013L173.633 51.1789L173.409 49.2116ZM161.915 54.7845L163.209 56.283H163.209L161.915 54.7845ZM157.067 60.3435L158.814 61.2756L156.005 66.5403L155.11 60.6405L157.067 60.3435ZM156.558 56.984L154.6 57.281L154.524 56.7821L154.697 56.3077L156.558 56.984ZM168.215 39.9866L168.224 38.0066L168.94 41.829L168.215 39.9866ZM158.555 48.3446L156.917 47.2321H156.917L158.555 48.3446ZM156.074 52.7255L157.891 53.5125L154.098 52.8519L156.074 52.7255ZM155.753 47.7133L157.729 47.5869L157.729 47.5869L155.753 47.7133ZM156.157 45.195L157.994 45.9328L157.994 45.9328L156.157 45.195ZM158.509 39.3387L160.346 40.0766L160.346 40.0766L158.509 39.3387ZM158.866 38.604L160.581 39.594L160.581 39.594L158.866 38.604ZM160.208 36.2793L158.493 35.2893L158.561 35.1722L158.644 35.0655L160.208 36.2793ZM164.942 32.8999L165.123 30.9282L165.503 34.7985L164.942 32.8999ZM161.14 34.6659L162.31 36.2634L159.425 33.6759L161.14 34.6659ZM163.09 31.2879L161.375 30.2979H161.375L163.09 31.2879ZM164.905 29.3593L165.997 31.0112L165.997 31.0112L164.905 29.3593ZM177.63 20.9494L176.538 19.2976H176.538L177.63 20.9494ZM179.723 20.0947L180.102 22.0379L180.102 22.038L179.723 20.0947ZM218.887 9.49191L219.886 11.2017L218.887 9.49191ZM317.471 -66L316.123 -67.4501L317.067 -68.3278L318.252 -67.8197L317.471 -66ZM238.313 33.8277C257.813 24.5952 293.139 9.06078 325.879 -4.74477C342.253 -11.6488 357.993 -18.1259 370.796 -23.1708C383.547 -28.195 393.515 -31.8515 398.263 -33.0554L399.237 -29.2168C394.781 -28.0873 385.064 -24.5366 372.248 -19.4865C359.484 -14.4572 343.775 -7.99318 327.418 -1.09589C294.697 12.7012 259.432 28.2101 240.007 37.4068L238.313 33.8277ZM228.974 47.0624C231.941 40.0325 236.051 35.5455 237.935 34.0617L240.385 37.1728C239.067 38.2105 235.35 42.1394 232.622 48.6022L228.974 47.0624ZM226.705 53.2188C227.365 51.28 228.071 49.201 228.974 47.0624L232.622 48.6022C231.783 50.5911 231.119 52.5398 230.454 54.4947L226.705 53.2188ZM217.218 67.8117C222.998 63.9912 224.657 59.2353 226.705 53.2188L230.454 54.4947C228.411 60.4954 226.415 66.4801 219.401 71.1154L217.218 67.8117ZM203.389 75.0542C208.377 72.7135 213.312 70.3928 217.218 67.8117L219.401 71.1154C215.208 73.8868 209.989 76.3314 205.071 78.6391L203.389 75.0542ZM188.767 82.9709C192.577 80.1181 198.048 77.5604 203.389 75.0542L205.071 78.6391C199.598 81.2074 194.553 83.5849 191.14 86.1408L188.767 82.9709ZM183.658 81.3752C182.881 82.7209 183.26 83.9384 183.778 84.3748C184.135 84.6761 185.586 85.3526 188.767 82.9709L191.14 86.1408C187.401 88.9406 183.711 89.4983 181.225 87.4021C178.9 85.4411 178.734 81.9825 180.228 79.3952L183.658 81.3752ZM184.851 78.8485C184.566 79.548 184.218 80.4052 183.658 81.3752L180.228 79.3952C180.639 78.6836 180.899 78.0529 181.185 77.3512L184.851 78.8485ZM194.448 71.2581C190.136 73.2682 187.98 74.6779 186.786 75.7897C185.69 76.8114 185.355 77.6155 184.851 78.8485L181.185 77.3512C181.734 76.0074 182.332 74.5275 184.087 72.8924C185.745 71.3473 188.359 69.7273 192.775 67.6689L194.448 71.2581ZM200.518 63.3652C201.045 64.864 200.665 66.4052 199.561 67.7459C198.532 68.9943 196.834 70.1455 194.448 71.2581L192.775 67.6689C194.951 66.6542 196.027 65.8072 196.504 65.228C196.728 64.9564 196.776 64.7965 196.787 64.7506C196.794 64.7195 196.793 64.7089 196.782 64.6789L200.518 63.3652ZM191.286 60.1094C192.652 59.8996 194.456 59.7161 196.107 59.9962C197.777 60.2795 199.735 61.1384 200.518 63.3652L196.782 64.6789C196.68 64.3882 196.425 64.0668 195.444 63.9004C194.444 63.7307 193.159 63.8281 191.887 64.0235L191.286 60.1094ZM180.751 61.7275L191.286 60.1094L191.887 64.0235L181.352 65.6416L180.751 61.7275ZM169.129 63.5042L180.752 61.7273L181.351 65.6418L169.727 67.4187L169.129 63.5042ZM163.589 67.29C164.765 65.2525 166.803 63.8597 169.129 63.5042L169.727 67.4187C168.59 67.5926 167.593 68.2736 167.018 69.27L163.589 67.29ZM159.298 74.7226L163.589 67.29L167.018 69.27L162.727 76.7026L159.298 74.7226ZM158.078 72.997C157.994 74.3873 158.157 75.0491 158.268 75.2974C158.313 75.3979 158.323 75.3699 158.248 75.3109C158.167 75.2469 158.077 75.2176 158.023 75.21C157.977 75.2036 158.142 75.2272 158.56 75.0203C158.939 74.8326 159.348 74.5422 159.698 74.2316L162.326 77.1936C161.781 77.6772 161.083 78.1896 160.317 78.5692C159.588 78.9297 158.568 79.2853 157.473 79.1316C156.204 78.9536 155.208 78.1488 154.656 76.9205C154.161 75.819 154.025 74.4077 154.125 72.7579L158.078 72.997ZM158.917 64.0526C158.655 65.9396 158.322 68.9687 158.078 72.997L154.125 72.7579C154.375 68.6354 154.718 65.5046 154.994 63.5094L158.917 64.0526ZM173.633 51.1789C172.566 51.3001 171.288 51.8226 169.849 52.7562C168.427 53.6787 166.961 54.9273 165.536 56.3445C162.683 59.1809 160.143 62.5408 158.609 64.87L155.302 62.6921C156.946 60.1953 159.653 56.6091 162.744 53.5364C164.29 51.9991 165.969 50.5526 167.694 49.4338C169.402 48.3263 171.273 47.4615 173.185 47.2442L173.633 51.1789ZM160.621 53.286C163.816 50.526 166.557 48.915 168.75 48.0424C170.854 47.205 172.681 46.9608 173.93 47.3013L172.888 51.1218C172.921 51.1308 172.72 51.0802 172.212 51.1516C171.734 51.2188 171.065 51.3829 170.214 51.7218C168.512 52.3991 166.143 53.7487 163.209 56.283L160.621 53.286ZM155.32 59.4114C156.257 57.6566 157.922 55.6165 160.621 53.286L163.209 56.283C160.738 58.4167 159.447 60.0895 158.814 61.2756L155.32 59.4114ZM158.515 56.687L159.025 60.0465L155.11 60.6405L154.6 57.281L158.515 56.687ZM168.94 41.829C167.011 42.5883 164.904 44.8986 162.921 48.1355C161.001 51.2696 159.428 54.882 158.418 57.6603L154.697 56.3077C155.766 53.3658 157.444 49.494 159.544 46.0667C161.581 42.7422 164.264 39.4139 167.49 38.1441L168.94 41.829ZM156.917 47.2321C159.29 43.739 161.519 41.4737 163.412 40.0631C165.228 38.7096 166.93 38.0008 168.224 38.0066L168.206 41.9666C168.24 41.9667 168.033 41.97 167.561 42.1704C167.117 42.3589 166.513 42.6905 165.778 43.2382C164.31 44.333 162.371 46.2496 160.193 49.4571L156.917 47.2321ZM154.257 51.9386C154.854 50.5596 155.718 48.9972 156.917 47.2321L160.193 49.4571C159.104 51.0603 158.37 52.4049 157.891 53.5125L154.257 51.9386ZM157.729 47.5869L158.05 52.5991L154.098 52.8519L153.777 47.8397L157.729 47.5869ZM157.994 45.9328C157.784 46.4575 157.693 47.0226 157.729 47.5869L153.777 47.8397C153.703 46.6858 153.889 45.5301 154.32 44.4571L157.994 45.9328ZM160.346 40.0766L157.994 45.9328L154.32 44.4571L156.671 38.6009L160.346 40.0766ZM160.581 39.594C160.491 39.7491 160.413 39.9104 160.346 40.0766L156.671 38.6009C156.808 38.261 156.968 37.9312 157.151 37.614L160.581 39.594ZM161.923 37.2693L160.581 39.594L157.151 37.614L158.493 35.2893L161.923 37.2693ZM158.644 35.0655C160.045 33.2597 161.886 31.7392 164.38 31.0013L165.503 34.7985C163.984 35.248 162.794 36.1774 161.772 37.4932L158.644 35.0655ZM164.76 34.8716C164.899 34.8843 164.916 34.8543 164.75 34.9013C164.605 34.942 164.398 35.0196 164.131 35.1465C163.598 35.4003 162.956 35.7903 162.31 36.2634L159.97 33.0685C160.768 32.4842 161.624 31.9543 162.429 31.5708C163.131 31.2368 164.145 30.8383 165.123 30.9282L164.76 34.8716ZM164.805 32.2779L162.854 35.6559L159.425 33.6759L161.375 30.2979L164.805 32.2779ZM165.997 31.0112C165.507 31.3352 165.099 31.7689 164.805 32.2779L161.375 30.2979C161.976 29.257 162.811 28.3702 163.814 27.7075L165.997 31.0112ZM178.722 22.6013L165.997 31.0112L163.814 27.7075L176.538 19.2976L178.722 22.6013ZM180.102 22.038C179.607 22.1348 179.139 22.3257 178.722 22.6013L176.538 19.2976C177.392 18.7335 178.344 18.3465 179.343 18.1514L180.102 22.038ZM219.886 11.2017C218.157 12.2112 215.466 13.2369 212.372 14.2309C209.235 15.2386 205.537 16.2587 201.703 17.2296C194.031 19.1721 185.73 20.9386 180.102 22.0379L179.343 18.1514C184.922 17.0616 193.149 15.3105 200.731 13.3908C204.523 12.4306 208.133 11.4334 211.161 10.4607C214.232 9.47424 216.563 8.55634 217.889 7.7821L219.886 11.2017ZM318.819 -64.5499C313.076 -59.2099 290.304 -41.4166 268.103 -24.4679C256.976 -15.9731 245.952 -7.66064 237.214 -1.18143C228.537 5.25215 221.981 9.97839 219.886 11.2017L217.889 7.7821C219.745 6.69816 226.074 2.14852 234.855 -4.36243C243.575 -10.8278 254.583 -19.1285 265.7 -27.6156C287.989 -44.6307 310.558 -62.2761 316.123 -67.4501L318.819 -64.5499ZM397.969 -29.3164L316.691 -64.1803L318.252 -67.8197L399.53 -32.9557L397.969 -29.3164Z" fill="black" mask="url(#path-8-outside-2)"/>
</g>
</svg>
