<svg width="24" height="24" viewBox="0 0 24 24" fill="none" xmlns="http://www.w3.org/2000/svg">
<circle cx="12" cy="11.9996" r="10" fill="#78E08F"/>
<path d="M22.4558 9.68049C22.1751 9.45338 21.708 9.07454 21.6495 8.89501C21.59 8.70854 21.7437 8.10854 21.836 7.75149C22.0571 6.88965 22.3328 5.81752 21.715 4.97354C21.1001 4.13551 19.9943 4.0621 19.1056 4.00257C18.7377 3.97679 18.1208 3.9361 17.9651 3.82304C17.8074 3.70899 17.5703 3.12484 17.4285 2.77473C17.0784 1.90693 16.6798 0.923072 15.7068 0.609665C14.7389 0.293306 13.8542 0.85365 13.0756 1.34654C12.7325 1.56273 12.2158 1.89006 11.9996 1.89006C11.7923 1.89006 11.2815 1.55781 10.9424 1.33763C10.1936 0.85065 9.25734 0.24765 8.27053 0.5829C7.29956 0.913181 6.90488 1.89104 6.55477 2.7519C6.41395 3.09901 6.17986 3.6782 6.01922 3.79623C5.86252 3.91224 5.23472 3.95392 4.85981 3.97871C3.92259 4.04218 2.86041 4.11362 2.26336 4.95859C1.67723 5.7887 1.94002 6.81221 2.17209 7.71573C2.26336 8.07474 2.41805 8.67577 2.3625 8.85526C2.30302 9.02682 1.84083 9.4067 1.56511 9.63381C0.867797 10.2091 0 10.9242 0 11.9953C0 13.0595 0.850969 13.7666 1.53427 14.3339C1.8308 14.5799 2.27808 14.9518 2.33859 15.1363C2.39808 15.3188 2.24339 15.9118 2.15016 16.2659C1.92403 17.1357 1.64138 18.2187 2.28305 19.0696C2.90887 19.8968 4.00973 19.9702 4.89539 20.0297C5.26336 20.0555 5.87925 20.0951 6.03595 20.2092C6.19266 20.3233 6.42872 20.9064 6.57052 21.2566C6.92161 22.1244 7.3193 23.1082 8.29322 23.4226C8.48859 23.4871 8.682 23.5149 8.87044 23.5149C9.61627 23.5149 10.3045 23.0785 10.9254 22.6877C11.2675 22.4715 11.7833 22.1442 11.9995 22.1442C12.2107 22.1442 12.7185 22.4675 13.0538 22.6817C13.7976 23.1548 14.7259 23.7479 15.7107 23.4107C16.6807 23.0804 17.0754 22.1035 17.4255 21.2407C17.5663 20.8946 17.8004 20.3144 17.961 20.1964C18.1187 20.0804 18.7425 20.0387 19.1155 20.0139C20.0458 19.9504 21.101 19.88 21.707 19.0479C22.317 18.2118 22.0551 17.1774 21.8241 16.266C21.7338 15.9099 21.5831 15.3159 21.6376 15.1373C21.6971 14.9657 22.1593 14.5859 22.434 14.3588C23.1322 13.7835 24 13.0674 24 11.9963C24 10.9341 23.1431 10.2389 22.4558 9.68049ZM21.1734 12.8294C20.5933 13.3065 19.9932 13.8014 19.7572 14.5105C19.5162 15.2325 19.7125 16.0061 19.902 16.7539C19.9942 17.1189 20.1489 17.7288 20.1281 17.8547C19.9773 17.9678 19.3555 18.0105 18.9836 18.0343C18.2467 18.0839 17.4116 18.1394 16.7898 18.5956C16.1739 19.0469 15.8753 19.7837 15.5867 20.4959C15.4459 20.847 15.2079 21.4351 15.1097 21.5244C14.9292 21.5244 14.4244 21.2 14.1219 21.0076C13.4981 20.6109 12.7909 20.1597 12.0005 20.1597C11.209 20.1597 10.4959 20.6119 9.86517 21.0106C9.55969 21.2031 9.04795 21.5283 8.93888 21.5521C8.78517 21.442 8.55108 20.8609 8.41027 20.5138C8.1187 19.7927 7.8172 19.0479 7.19536 18.6006C6.5775 18.1553 5.79 18.1028 5.02734 18.0522C4.66931 18.0284 4.00186 17.9837 3.88083 17.9014C3.81933 17.7259 3.97505 17.1259 4.06927 16.7688C4.25273 16.0617 4.46203 15.2604 4.22597 14.5284C3.98892 13.7975 3.35916 13.2728 2.80275 12.8106C2.53102 12.5845 2.0242 12.163 1.98155 12.0103C2.02617 11.8238 2.54686 11.3944 2.82652 11.1653C3.40669 10.6873 4.00673 10.1924 4.2428 9.48324C4.4858 8.75626 4.28545 7.97673 4.09303 7.22298C3.9998 6.85899 3.84309 6.25004 3.855 6.13402C4.00673 6.02495 4.62361 5.98327 4.99256 5.95848C5.76713 5.90692 6.56948 5.85235 7.19133 5.39715C7.80722 4.94588 8.10577 4.20999 8.39437 3.49792C8.53519 3.14584 8.77425 2.55868 8.86547 2.47042C9.04894 2.47337 9.5587 2.80463 9.8632 3.00202C10.492 3.41063 11.2061 3.87381 12.0005 3.87381C12.7909 3.87381 13.506 3.42156 14.1348 3.02387C14.4403 2.83046 14.952 2.50618 15.0611 2.48237C15.2138 2.59248 15.4489 3.17363 15.5897 3.52074C15.8813 4.24079 16.1828 4.98559 16.8046 5.43287C17.4225 5.87917 18.211 5.93171 18.9747 5.98229C19.3515 6.00807 19.9833 6.05073 20.1013 6.12212C20.1618 6.29668 20.0081 6.89968 19.9148 7.2587C19.7333 7.96881 19.527 8.77313 19.7641 9.50706C20.0031 10.2459 20.6428 10.7646 21.2071 11.2218C21.465 11.4321 21.9401 11.8159 22.0134 12.0004C21.9431 12.1937 21.4442 12.6053 21.1734 12.8294Z" fill="black"/>
<path d="M16.4349 8.25833C16.0124 7.90527 15.3885 7.96278 15.0385 8.38231L10.6161 13.6695L8.73471 11.7891C8.34692 11.4013 7.7201 11.4013 7.33235 11.7891C6.94455 12.1769 6.94455 12.8037 7.33235 13.1914L9.98042 15.8395C10.1659 16.0269 10.4188 16.1301 10.6816 16.1301C10.6955 16.1301 10.7104 16.1301 10.7243 16.1281C11.0039 16.1162 11.2628 15.9873 11.4413 15.7741L16.5588 9.65473C16.9099 9.23426 16.8554 8.60942 16.4349 8.25833Z" fill="black"/>
</svg>
