<svg width="16" height="16" viewBox="0 0 16 16" fill="none" xmlns="http://www.w3.org/2000/svg">
<g id="access_alarm_24px">
<path id="icon/device/access_alarm_24px" fill-rule="evenodd" clip-rule="evenodd" d="M5.25325 2.30668L4.39992 1.28668L1.33325 3.85335L2.19325 4.87335L5.25325 2.30668ZM14.6666 3.86002L11.5999 1.28668L10.7399 2.30668L13.8066 4.88002L14.6666 3.86002ZM7.33325 5.38001H8.33325V8.88001L10.9999 10.46L10.4999 11.28L7.33325 9.38001V5.38001ZM7.99992 2.71334C4.68659 2.71334 1.99992 5.40001 1.99992 8.71334C1.99992 12.0267 4.67992 14.7133 7.99992 14.7133C11.3133 14.7133 13.9999 12.0267 13.9999 8.71334C13.9999 5.40001 11.3133 2.71334 7.99992 2.71334ZM3.33325 8.71334C3.33325 11.2933 5.41992 13.38 7.99992 13.38C10.5799 13.38 12.6666 11.2933 12.6666 8.71334C12.6666 6.13334 10.5799 4.04668 7.99992 4.04668C5.41992 4.04668 3.33325 6.13334 3.33325 8.71334Z" fill="black"/>
</g>
</svg>
