<svg width="25" height="25" viewBox="0 0 25 25" fill="none" xmlns="http://www.w3.org/2000/svg">
<path d="M11.5 18.5V21.5C11.5 22 11.1 22.5 10.5 22.5C9.9 22.5 9.5 22 9.5 21.5V18.5H11.5Z" stroke="#17191C" stroke-width="1.5" stroke-miterlimit="10" stroke-linecap="round" stroke-linejoin="round"/>
<path d="M15.5 18.5V21.5C15.5 22 15.1 22.5 14.5 22.5C13.9 22.5 13.5 22 13.5 21.5V18.5H15.5Z" stroke="#17191C" stroke-width="1.5" stroke-miterlimit="10" stroke-linecap="round" stroke-linejoin="round"/>
<path d="M17.5 11.5V16.5C17.5 17.6 16.6 18.5 15.5 18.5H9.5C8.4 18.5 7.5 17.6 7.5 16.5V11.5C7.5 10.4 8.4 9.5 9.5 9.5H15.5C16.6 9.5 17.5 10.4 17.5 11.5Z" stroke="#17191C" stroke-width="1.5" stroke-miterlimit="10" stroke-linecap="round" stroke-linejoin="round"/>
<path d="M5.5 11.5V15.5C5.5 16.1 5.1 16.5 4.5 16.5C3.9 16.5 3.5 16.1 3.5 15.5V11.5C3.5 10.9 3.9 10.5 4.5 10.5C5.1 10.5 5.5 10.9 5.5 11.5Z" stroke="#17191C" stroke-width="1.5" stroke-miterlimit="10" stroke-linecap="round" stroke-linejoin="round"/>
<path d="M21.5 11.5V15.5C21.5 16.1 21.1 16.5 20.5 16.5C19.9 16.5 19.5 16.1 19.5 15.5V11.5C19.5 10.9 19.9 10.5 20.5 10.5C21.1 10.5 21.5 10.9 21.5 11.5Z" stroke="#17191C" stroke-width="1.5" stroke-miterlimit="10" stroke-linecap="round" stroke-linejoin="round"/>
<path d="M13.5 18.5H11.5" stroke="#17191C" stroke-width="1.5" stroke-miterlimit="10" stroke-linecap="round" stroke-linejoin="round"/>
<path d="M10.1 7.5H14.9C15.8 7.5 16.5 6.75 16.5 5.78571C16.5 3.42857 14.7 1.5 12.5 1.5C10.3 1.5 8.5 3.42857 8.5 5.78571C8.5 6.75 9.2 7.5 10.1 7.5Z" stroke="#17191C" stroke-width="1.5" stroke-miterlimit="10" stroke-linecap="round" stroke-linejoin="round"/>
</svg>
