<svg width="24" height="24" viewBox="0 0 24 24" fill="none" xmlns="http://www.w3.org/2000/svg">
<path fill-rule="evenodd" clip-rule="evenodd" d="M16.0001 4.66663V7.33329H19.3334L18.2334 18.3533C18.1667 18.9 17.7067 19.3333 17.1467 19.3333H16.0001V18H16.9267L17.8601 8.66663H11.4867L11.3334 7.33329H14.6667V4.66663H16.0001ZM9.66675 9.9933C7.16675 9.9933 4.66675 11.3333 4.66675 14H14.6667C14.6667 11.3333 12.1667 9.9933 9.66675 9.9933ZM4.66675 18.6533C4.66675 19.0266 4.96675 19.3266 5.34008 19.3266H14.0001C14.3734 19.3266 14.6734 19.0266 14.6734 18.6533V18H4.66675V18.6533ZM9.66675 11.3266C8.72675 11.3266 7.15342 11.6333 6.41342 12.6666H12.9201C12.1801 11.6333 10.6067 11.3266 9.66675 11.3266ZM14.6667 15.3333V16.6666H4.66675V15.3333H14.6667Z" fill="black"/>
</svg>
