<svg width="24" height="24" viewBox="0 0 24 24" fill="none" xmlns="http://www.w3.org/2000/svg">
<path fill-rule="evenodd" clip-rule="evenodd" d="M15.3333 8.33333H16.6667C17.4 8.33333 18 8.93333 18 9.66667V17.6667C18 18.4 17.4 19 16.6667 19H7.33333C6.6 19 6 18.4 6 17.6667V9.66667C6 8.93333 6.6 8.33333 7.33333 8.33333H8.66667C8.66667 6.49333 10.16 5 12 5C13.84 5 15.3333 6.49333 15.3333 8.33333ZM14 8.33333C14 7.22667 13.1067 6.33333 12 6.33333C10.8933 6.33333 10 7.22667 10 8.33333H14ZM7.33333 17.6667V9.66667H16.6667V17.6667H7.33333ZM10 10.3333C10 11.44 10.8933 12.3333 12 12.3333C13.1067 12.3333 14 11.44 14 10.3333H15.3333C15.3333 12.1733 13.84 13.6667 12 13.6667C10.16 13.6667 8.66667 12.1733 8.66667 10.3333H10Z" fill="#4EA031"/>
</svg>
