<svg width="36" height="36" fill="none" xmlns="http://www.w3.org/2000/svg"><path fill="#6CE787" d="M0 0h36v36H0z"/><g clip-path="url(#clip0_10650_47065)"><path d="M7.765 18.185a.861.861 0 01-.635-.25.9.9 0 01-.25-.647c0-.265.083-.48.25-.647a.861.861 0 01.635-.25c.265 0 .481.083.647.25.167.166.25.382.25.647a.879.879 0 01-.26.647.861.861 0 01-.637.25zm-1.986 8.81c-.091 0-.136-.046-.136-.137v-1.079c0-.098.049-.14.147-.125.447.016.757-.049.931-.192.182-.144.272-.398.272-.761l-.022-5.722c0-.037.011-.068.034-.09a.141.141 0 01.102-.046h1.328c.038 0 .068.015.091.046.03.022.045.053.045.09v5.7c0 .612-.083 1.085-.25 1.418-.166.34-.45.58-.85.715-.394.137-.958.197-1.692.182zm7.423-8.016c0-.037.011-.068.034-.09a.141.141 0 01.102-.046h1.329c.037 0 .068.015.09.046.03.022.046.053.046.09v5.563a.141.141 0 01-.046.102.123.123 0 01-.09.034h-1.329a.166.166 0 01-.102-.034.166.166 0 01-.034-.102v-.386c0-.023-.008-.034-.023-.034-.015-.008-.03 0-.045.023-.303.408-.772.613-1.408.613-.575 0-1.048-.174-1.419-.523-.37-.348-.556-.836-.556-1.464v-3.792c0-.037.011-.068.034-.09a.141.141 0 01.102-.046h1.317c.038 0 .068.015.09.046.031.022.046.053.046.09v3.395c0 .302.08.548.239.738.166.189.393.283.68.283a.91.91 0 00.637-.227c.166-.159.268-.363.306-.613V18.98zm5.108 5.779c-.507 0-.95-.072-1.328-.216-.379-.144-.674-.344-.886-.602a1.369 1.369 0 01-.306-.874v-.113c0-.038.01-.068.034-.091a.14.14 0 01.102-.045h1.26c.038 0 .068.015.09.045.03.023.046.053.046.09v.012c0 .167.09.31.273.431.189.114.423.17.703.17.258 0 .466-.049.625-.147.159-.106.238-.235.238-.386 0-.136-.068-.238-.204-.306-.136-.069-.36-.14-.67-.216a6.736 6.736 0 01-.84-.261c-.484-.167-.87-.371-1.158-.613-.288-.242-.431-.59-.431-1.045 0-.56.215-1.002.647-1.328.439-.333 1.018-.5 1.737-.5.484 0 .908.08 1.271.24.363.15.643.366.84.646.204.28.307.598.307.954a.14.14 0 01-.046.102.123.123 0 01-.09.034h-1.215a.166.166 0 01-.103-.034.166.166 0 01-.034-.102c0-.167-.087-.307-.26-.42-.167-.114-.39-.17-.67-.17-.25 0-.454.045-.613.136-.16.09-.239.215-.239.374 0 .152.076.265.227.34.16.076.42.156.784.24.083.022.177.048.283.079.106.022.22.053.34.09.538.16.962.364 1.272.614.31.25.466.613.466 1.09 0 .56-.224.998-.67 1.316-.439.31-1.033.466-1.782.466zm6.709-4.768a.141.141 0 01-.046.102.123.123 0 01-.09.034h-1.09c-.038 0-.057.019-.057.057v2.406c0 .25.049.436.147.557.106.12.273.181.5.181h.375c.037 0 .068.015.09.046.03.022.046.053.046.09v1.079c0 .083-.046.132-.136.148-.318.015-.545.022-.682.022-.628 0-1.097-.102-1.407-.306-.31-.212-.47-.606-.477-1.18v-3.043c0-.038-.019-.057-.057-.057h-.647a.166.166 0 01-.102-.034.166.166 0 01-.034-.102v-1.01c0-.038.011-.069.034-.091a.141.141 0 01.102-.046h.647c.038 0 .057-.019.057-.057v-1.35c0-.038.011-.069.034-.091a.14.14 0 01.102-.046H23.6c.037 0 .068.015.09.046.03.022.046.053.046.09v1.351c0 .038.019.057.057.057h1.09c.037 0 .068.015.09.046.03.022.046.053.046.09v1.01zm3.463 4.779c-.636 0-1.181-.166-1.635-.5a2.495 2.495 0 01-.931-1.362 4.039 4.039 0 01-.159-1.158c0-.446.053-.847.159-1.203a2.44 2.44 0 01.942-1.317c.454-.318 1-.477 1.635-.477.62 0 1.15.16 1.59.477.438.31.748.746.93 1.306.121.378.182.775.182 1.192 0 .408-.053.79-.16 1.146-.166.59-.476 1.056-.93 1.396-.447.334-.988.5-1.623.5zm0-1.374c.25 0 .461-.075.635-.227.174-.151.3-.36.375-.624.06-.242.09-.507.09-.795 0-.317-.03-.586-.09-.806a1.26 1.26 0 00-.386-.601.966.966 0 00-.636-.216.982.982 0 00-.647.216 1.23 1.23 0 00-.363.601c-.06.182-.09.45-.09.806 0 .34.026.606.078.795.076.265.201.473.375.624a.995.995 0 00.659.227z" fill="#000"/><path d="M15.015 11.925a.249.249 0 00-.364-.02c-.029.03-2.875 2.726-4.639 1.505-.7-.485-.872-1.656-.872-1.666a.252.252 0 00-.21-.232.277.277 0 00-.27.15c-.45 1.05-1.245 2.383-1.466 2.232-.019 0-.057-.04-.086-.111a1.28 1.28 0 01.086-1.01 2.822 2.822 0 011.84-1.564.26.26 0 00.183-.182.288.288 0 00-.058-.263.266.266 0 00-.24-.07c-.958.242-1.753.928-2.185 1.857-.23.455-.258 1-.076 1.474a.583.583 0 00.536.394h.01c.47-.01 1.054-.626 1.457-1.292a.225.225 0 01.22-.111c.086 0 .163.05.201.131.163.283.384.525.652.697 2.09 1.463 5.128-1.424 5.262-1.545a.278.278 0 00.076-.182.268.268 0 00-.057-.192z" fill="url(#paint0_linear_10650_47065)"/><path d="M22.64 11.734a.22.22 0 00-.172-.081.246.246 0 00-.183.07c-1.322 1.323-3.498 1.606-5.06 1.707-.048.01-.077-.071-.048-.121.125-.172.211-.374.25-.586.076-.545-.23-1.07-.739-1.222-.45-.191-.939.101-1.475.848-.039.05-.087.03-.077-.03.038-.303.077-.596.115-.868a.268.268 0 00-.086-.253.226.226 0 00-.26-.04c-.085.03-.143.121-.152.212-.106.808-.23 1.646-.365 2.453-.872 1.848-1.82 4.695-1.37 5.14.067.07.163.11.259.11.048 0 .086 0 .134-.02.546-.202 1.073-2.696 1.466-5.088.01-.02.01-.03.02-.04a6.095 6.095 0 011.092-1.697c.143-.141.354-.303.517-.232.326.141.47.353.422.636a1.21 1.21 0 01-.968.889c-.058 0-.115.01-.173.01a.279.279 0 00-.23.282c.02.142.125.243.26.243.066 0 .133 0 .2-.01.183-.02.393-.03.633-.04 1.62-.102 4.341-.253 5.98-1.899.058-.04.077-.11.087-.182a.283.283 0 00-.077-.191zm-9.23 6.481c.125-.606.279-1.201.48-1.777a12.76 12.76 0 01-.48 1.777z" fill="url(#paint1_linear_10650_47065)"/><path d="M30.193 11.734a.22.22 0 00-.173-.081.246.246 0 00-.182.07c-1.322 1.323-3.498 1.606-5.06 1.707-.048.01-.077-.071-.048-.121.125-.172.21-.374.25-.586.076-.545-.23-1.07-.739-1.222-.45-.191-.939.101-1.476.848-.038.05-.086.03-.076-.03.038-.303.076-.596.115-.868a.268.268 0 00-.086-.253.226.226 0 00-.26-.04c-.086.03-.143.121-.153.212-.105.808-.23 1.646-.364 2.453-.872 1.848-1.82 4.695-1.37 5.14.067.07.163.11.258.11.048 0 .087 0 .135-.02.546-.202 1.073-2.696 1.466-5.088.01-.02.01-.03.02-.04a6.095 6.095 0 011.092-1.697c.143-.141.354-.303.517-.232.326.141.47.353.422.636a1.21 1.21 0 01-.968.889c-.058 0-.115.01-.173.01a.279.279 0 00-.23.282c.02.142.125.243.26.243.066 0 .133 0 .2-.01.183-.02.393-.03.633-.04 1.62-.102 4.341-.253 5.98-1.899.058-.04.077-.11.087-.182a.283.283 0 00-.077-.191zm-9.23 6.481c.125-.606.279-1.201.48-1.777a12.76 12.76 0 01-.48 1.777z" fill="url(#paint2_linear_10650_47065)"/></g><defs><linearGradient id="paint0_linear_10650_47065" x1="18.404" y1="10.688" x2="18.404" y2="19.073" gradientUnits="userSpaceOnUse"><stop stop-opacity=".9"/><stop offset=".901" stop-opacity="0"/></linearGradient><linearGradient id="paint1_linear_10650_47065" x1="18.404" y1="10.688" x2="18.404" y2="19.073" gradientUnits="userSpaceOnUse"><stop stop-opacity=".9"/><stop offset=".901" stop-opacity="0"/></linearGradient><linearGradient id="paint2_linear_10650_47065" x1="18.404" y1="10.688" x2="18.404" y2="19.073" gradientUnits="userSpaceOnUse"><stop stop-opacity=".9"/><stop offset=".901" stop-opacity="0"/></linearGradient><clipPath id="clip0_10650_47065"><path fill="#fff" transform="translate(5.625 10.688)" d="M0 0h26.016v15.68H0z"/></clipPath></defs></svg>