<svg width="32" height="32" viewBox="0 0 32 32" fill="none" xmlns="http://www.w3.org/2000/svg">
<rect width="32" height="32" rx="16" fill="#6CE787"/>
<g clip-path="url(#clip0_13293_9520)">
<path d="M16.6583 23.5L8.5 15.3417V17.0083C8.5 17.45 8.675 17.875 8.99167 18.1833L15.4833 24.675C16.1333 25.325 17.1917 25.325 17.8417 24.675L23.0167 19.5C23.6667 18.85 23.6667 17.7917 23.0167 17.1417L16.6583 23.5Z" fill="black"/>
<path d="M15.4833 20.5083C15.8083 20.8333 16.2333 21 16.6583 21C17.0833 21 17.5083 20.8333 17.8333 20.5083L23.0083 15.3333C23.6583 14.6833 23.6583 13.625 23.0083 12.975L16.5167 6.48333C16.2083 6.175 15.7833 6 15.3417 6H10.1667C9.25 6 8.5 6.75 8.5 7.66667V12.8417C8.5 13.2833 8.675 13.7083 8.99167 14.0167L15.4833 20.5083ZM10.1667 7.66667H15.3417L21.8333 14.1583L16.6583 19.3333L10.1667 12.8417V7.66667Z" fill="black"/>
<path d="M12.0417 10.5833C12.617 10.5833 13.0833 10.117 13.0833 9.54167C13.0833 8.96637 12.617 8.5 12.0417 8.5C11.4664 8.5 11 8.96637 11 9.54167C11 10.117 11.4664 10.5833 12.0417 10.5833Z" fill="black"/>
</g>
<defs>
<clipPath id="clip0_13293_9520">
<rect width="20" height="20" fill="white" transform="translate(6 6)"/>
</clipPath>
</defs>
</svg>
