<svg width="24" height="24" viewBox="0 0 24 24" fill="none" xmlns="http://www.w3.org/2000/svg">
<path d="M18.6201 3H4.62012C3.51555 3 2.62012 3.89543 2.62012 5V19C2.62012 20.1046 3.51555 21 4.62012 21H18.6201C19.7247 21 20.6201 20.1046 20.6201 19V5C20.6201 3.89543 19.7247 3 18.6201 3Z" stroke="black" stroke-width="1.5" stroke-linecap="round" stroke-linejoin="round"/>
<path d="M8.12012 10C8.94854 10 9.62012 9.32843 9.62012 8.5C9.62012 7.67157 8.94854 7 8.12012 7C7.29169 7 6.62012 7.67157 6.62012 8.5C6.62012 9.32843 7.29169 10 8.12012 10Z" stroke="black" stroke-width="1.5" stroke-linecap="round" stroke-linejoin="round"/>
<path d="M19.6201 15L14.6201 10L3.62012 21" stroke="black" stroke-width="1.5" stroke-linecap="round" stroke-linejoin="round"/>
</svg>
