<svg width="21" height="23" viewBox="0 0 21 23" fill="none" xmlns="http://www.w3.org/2000/svg">
<path d="M4.852 22.232C4.852 21.9893 4.80533 21.868 4.712 21.868L4.068 22.176C4.068 22.0453 3.99333 21.952 3.844 21.896L3.62 21.868C3.47067 21.868 3.284 21.9333 3.06 22.064C3.02267 21.9707 2.976 21.8773 2.92 21.784C2.864 21.6907 2.81733 21.6067 2.78 21.532C2.53733 21.0653 2.29467 20.552 2.052 19.992C1.828 19.4133 1.61333 18.8627 1.408 18.34C1.22133 17.8173 1.072 17.4067 0.96 17.108C0.885333 16.8653 0.801333 16.5013 0.708 16.016C0.614667 15.5307 0.521333 14.9147 0.428 14.168C0.633333 14.2987 0.792 14.364 0.904 14.364C1.03467 14.364 1.156 14.168 1.268 13.776C1.324 13.8507 1.42667 13.888 1.576 13.888C1.688 13.888 1.772 13.8507 1.828 13.776L2.276 13.104L2.78 13.272H2.808C2.84533 13.272 2.88267 13.2533 2.92 13.216C2.95733 13.1787 3.01333 13.1413 3.088 13.104C3.23733 13.0107 3.34933 12.964 3.424 12.964L3.508 12.992C3.97467 13.216 4.27333 13.6267 4.404 14.224C4.74 15.6427 5.076 16.352 5.412 16.352C5.748 16.352 6.14 15.9973 6.588 15.288C6.812 14.9333 7.036 14.5227 7.26 14.056C7.50267 13.5893 7.74533 13.0667 7.988 12.488C8.02533 12.712 8.06267 12.824 8.1 12.824C8.19333 12.824 8.352 12.5907 8.576 12.124C8.81867 11.6573 9.20133 11.0133 9.724 10.192C10.0227 9.688 10.396 9.11867 10.844 8.484C11.3107 7.84933 11.8053 7.196 12.328 6.524C12.8507 5.852 13.3547 5.21733 13.84 4.62C14.344 4.02267 14.792 3.50933 15.184 3.08C15.576 2.65067 15.8653 2.37067 16.052 2.24C16.7613 1.75467 17.3213 1.288 17.732 0.839999C17.7133 0.970665 17.6853 1.092 17.648 1.204C17.6293 1.29733 17.62 1.36267 17.62 1.4C17.62 1.47467 17.6573 1.512 17.732 1.512L18.516 1.12V1.232C18.516 1.38133 18.5533 1.456 18.628 1.456C18.684 1.456 18.796 1.372 18.964 1.204C19.132 1.036 19.2253 0.914666 19.244 0.839999L19.188 1.232L20.14 0.672L19.916 1.176C20.2147 0.970666 20.4293 0.867999 20.56 0.867999C20.6347 0.867999 20.6907 0.914665 20.728 1.008C20.7653 1.08267 20.784 1.15733 20.784 1.232C20.784 1.344 20.7373 1.47467 20.644 1.624C20.5507 1.77333 20.4293 1.95067 20.28 2.156C20.168 2.30533 19.9813 2.52933 19.72 2.828C19.4773 3.108 19.104 3.528 18.6 4.088C18.096 4.62933 17.424 5.38533 16.584 6.356C16.36 6.59867 16.0147 7.028 15.548 7.644C15.0813 8.24133 14.5493 8.94133 13.952 9.744C13.3733 10.528 12.7947 11.3213 12.216 12.124C11.6373 12.9267 11.124 13.6547 10.676 14.308C10.228 14.9427 9.91067 15.4187 9.724 15.736L7.988 18.676C7.61467 19.3107 7.30667 19.8333 7.064 20.244C6.82133 20.636 6.63467 20.9067 6.504 21.056C6.224 21.392 5.916 21.6907 5.58 21.952L5.328 21.812L5.104 21.952L4.852 22.232Z" fill="#78E08F"/>
</svg>
