<svg width="48" height="49" viewBox="0 0 48 49" fill="none" xmlns="http://www.w3.org/2000/svg">
<path fill-rule="evenodd" clip-rule="evenodd" d="M20.229 14.2068C20.1231 13.6254 20.0434 13.0505 19.9918 12.4755C19.9142 11.6131 19.9622 10.7441 19.9347 9.88166C19.9227 9.51578 19.8754 8.5619 19.8944 8.42469C20.0674 7.22906 21.1099 7.04609 21.4148 7.01343C21.5624 6.99383 23.0771 6.83709 23.4039 8.39207C23.8048 10.2933 23.9333 12.2076 23.7914 14.0827C24.1225 15.6769 24.6886 17.2645 25.4361 18.7019C28.4106 24.4188 34.0785 24.9741 40.2195 24.9219C41.1639 24.9088 41.9481 25.5948 41.9975 26.4638C42.047 27.3392 41.3439 28.0971 40.4037 28.1755C36.9712 28.4826 30.881 31.0307 28.7755 33.6833C28.335 34.2387 28.0788 35.5781 27.74 36.8913C27.2671 38.7142 26.7045 40.5174 26.0742 41.2753C25.9796 41.3929 24.8297 42.5951 24.4867 42.7715C23.6623 43.1896 23.0023 42.9479 22.6275 42.7257C22.2527 42.5036 21.8285 42.0658 21.6591 41.3406C21.4819 40.5827 21.6315 39.0277 21.604 38.6945C21.5038 37.4858 21.2426 35.1141 20.7097 33.0757C20.4224 31.9781 20.1161 30.9654 19.6093 30.4623C17.7331 28.6002 14.7332 28.8746 12.207 29.1817C11.9169 29.2144 11.6268 29.2536 11.3374 29.2863C10.3089 29.5672 9.21696 29.7763 8.06289 29.9004C6.32013 30.0899 6.03358 28.6068 6.01805 28.5088C5.98558 28.2931 5.86487 27.1825 7.17846 26.7382C7.32175 26.6925 8.37913 26.4768 8.7864 26.3919C9.35391 26.2743 9.92776 26.1829 10.5037 26.0979C16.4534 24.3861 19.6848 19.5774 20.229 14.2068ZM22.271 20.1459C24.5171 24.4449 27.9256 26.5226 31.9659 27.4634H31.9652C29.4425 28.6852 27.1478 30.2141 25.9316 31.7494C25.4699 32.3309 25.0464 33.5004 24.6646 34.8136C24.4578 33.5919 24.1783 32.2916 23.8091 31.1809C23.3891 29.9134 22.8237 28.8616 22.1927 28.2344C20.9744 27.0257 19.4455 26.3527 17.8015 26.0195C19.7695 24.4057 21.2617 22.3934 22.271 20.1459Z" fill="#FFBE00"/>
</svg>
