<svg width="16" height="18" viewBox="0 0 16 18" fill="none" xmlns="http://www.w3.org/2000/svg">
<path fill-rule="evenodd" clip-rule="evenodd" d="M7.16667 2.87912V2.00001H6.33333V0.333344H9.66667V2.00001H8.83333V2.87912C10.2796 3.03899 11.6019 3.61009 12.6807 4.4729L14.0761 3.07139L15.2572 4.24731L13.8594 5.65128C14.8861 6.93444 15.5 8.5622 15.5 10.3333C15.5 14.4755 12.1421 17.8333 8 17.8333C3.85786 17.8333 0.5 14.4755 0.5 10.3333C0.5 6.47288 3.41671 3.29365 7.16667 2.87912ZM8 16.1667C11.2217 16.1667 13.8333 13.555 13.8333 10.3333C13.8333 7.11168 11.2217 4.50001 8 4.50001C4.77834 4.50001 2.16667 7.11168 2.16667 10.3333C2.16667 13.555 4.77834 16.1667 8 16.1667ZM8.83333 11.1667V6.16668H7.16667V11.1667H8.83333Z" fill="#697667"/>
</svg>
