<svg width="32" height="40" viewBox="0 0 32 40" fill="none" xmlns="http://www.w3.org/2000/svg">
<path opacity="0.15" fill-rule="evenodd" clip-rule="evenodd" d="M26.4676 37.9373C29.8563 37.361 32 36.5096 32 35.5599C32 33.8239 24.8366 32.4166 16 32.4166C7.16344 32.4166 0 33.8239 0 35.5599C0 36.4235 1.77268 37.2058 4.64218 37.7739L4.64001 37.7744L15.9686 40L26.4676 37.9373Z" fill="#697667"/>
<mask id="path-2-inside-1" fill="white">
<path fill-rule="evenodd" clip-rule="evenodd" d="M26.4676 29.1202C29.8563 26.08 32 21.5895 32 16.5802C32 7.42323 24.8366 0 16 0C7.16344 0 0 7.42323 0 16.5802C0 21.1354 1.77268 25.2616 4.64218 28.2584L4.64001 28.2606L15.9686 40L26.4676 29.1202Z"/>
</mask>
<path fill-rule="evenodd" clip-rule="evenodd" d="M26.4676 29.1202C29.8563 26.08 32 21.5895 32 16.5802C32 7.42323 24.8366 0 16 0C7.16344 0 0 7.42323 0 16.5802C0 21.1354 1.77268 25.2616 4.64218 28.2584L4.64001 28.2606L15.9686 40L26.4676 29.1202Z" fill="white"/>
<path d="M26.4676 29.1202L25.7998 28.3758L25.7731 28.3999L25.7481 28.4258L26.4676 29.1202ZM4.64218 28.2584L5.36171 28.9528L6.02933 28.2611L5.36446 27.5667L4.64218 28.2584ZM4.64001 28.2606L3.92049 27.5661L3.25027 28.2605L3.92043 28.955L4.64001 28.2606ZM15.9686 40L15.249 40.6944L15.9686 41.4401L16.6882 40.6944L15.9686 40ZM31 16.5802C31 21.3001 28.9811 25.5217 25.7998 28.3758L27.1354 29.8645C30.7315 26.6383 33 21.8789 33 16.5802H31ZM16 1C24.251 1 31 7.94163 31 16.5802H33C33 6.90482 25.4221 -1 16 -1V1ZM1 16.5802C1 7.94163 7.74901 1 16 1V-1C6.57788 -1 -1 6.90482 -1 16.5802H1ZM5.36446 27.5667C2.66948 24.7523 1 20.8724 1 16.5802H-1C-1 21.3985 0.875891 25.771 3.91991 28.95L5.36446 27.5667ZM5.35954 28.9551L5.36171 28.9528L3.92265 27.5639L3.92049 27.5661L5.35954 28.9551ZM16.6882 39.3056L5.3596 27.5662L3.92043 28.955L15.249 40.6944L16.6882 39.3056ZM25.7481 28.4258L15.249 39.3056L16.6882 40.6944L27.1872 29.8146L25.7481 28.4258Z" fill="black" mask="url(#path-2-inside-1)"/>
<g clip-path="url(#clip0)">
<path d="M23.5 22.3333V15.6667C23.4997 15.3744 23.4225 15.0873 23.2763 14.8343C23.13 14.5813 22.9198 14.3711 22.6667 14.225L16.8333 10.8917C16.58 10.7454 16.2926 10.6684 16 10.6684C15.7074 10.6684 15.42 10.7454 15.1667 10.8917L9.33333 14.225C9.08022 14.3711 8.86998 14.5813 8.72372 14.8343C8.57745 15.0873 8.5003 15.3744 8.5 15.6667V22.3333C8.5003 22.6256 8.57745 22.9126 8.72372 23.1657C8.86998 23.4187 9.08022 23.6289 9.33333 23.775L15.1667 27.1083C15.42 27.2546 15.7074 27.3316 16 27.3316C16.2926 27.3316 16.58 27.2546 16.8333 27.1083L22.6667 23.775C22.9198 23.6289 23.13 23.4187 23.2763 23.1657C23.4225 22.9126 23.4997 22.6256 23.5 22.3333Z" fill="#78E08F"/>
<path d="M19.75 14.8333L12.25 10.5083" stroke="black" stroke-linecap="round" stroke-linejoin="round"/>
<path d="M23.5 20.3333V13.6667C23.4997 13.3744 23.4225 13.0873 23.2763 12.8343C23.13 12.5813 22.9198 12.3711 22.6667 12.225L16.8333 8.89166C16.58 8.74538 16.2926 8.66837 16 8.66837C15.7074 8.66837 15.42 8.74538 15.1667 8.89166L9.33333 12.225C9.08022 12.3711 8.86998 12.5813 8.72372 12.8343C8.57745 13.0873 8.5003 13.3744 8.5 13.6667V20.3333C8.5003 20.6256 8.57745 20.9126 8.72372 21.1657C8.86998 21.4187 9.08022 21.6289 9.33333 21.775L15.1667 25.1083C15.42 25.2546 15.7074 25.3316 16 25.3316C16.2926 25.3316 16.58 25.2546 16.8333 25.1083L22.6667 21.775C22.9198 21.6289 23.13 21.4187 23.2763 21.1657C23.4225 20.9126 23.4997 20.6256 23.5 20.3333Z" stroke="black" stroke-linecap="round" stroke-linejoin="round"/>
<path d="M8.7251 12.8L16.0001 17.0083L23.2751 12.8" stroke="black" stroke-linecap="round" stroke-linejoin="round"/>
<path d="M16 25.4V17" stroke="black" stroke-linecap="round" stroke-linejoin="round"/>
</g>
<defs>
<clipPath id="clip0">
<rect width="20" height="20" fill="white" transform="translate(6 7)"/>
</clipPath>
</defs>
</svg>
