<svg width="114" height="114" viewBox="0 0 114 114" fill="none" xmlns="http://www.w3.org/2000/svg">
<circle cx="57" cy="57" r="57" fill="#FFE493"/>
<ellipse cx="56.3264" cy="41.3597" rx="7.38991" ry="6.97182" fill="#DC3545"/>
<path d="M70.8796 89.6802H42.1296C40.9495 89.6784 39.8182 89.2078 38.9842 88.3717C38.1501 87.5357 37.6813 86.4024 37.6807 85.2206V28.4573C37.6819 27.2755 38.1513 26.1425 38.9858 25.3068C39.8203 24.4712 40.9517 24.0012 42.1319 24H70.8819C72.062 24.0012 73.1935 24.4712 74.028 25.3068C74.8625 26.1425 75.3318 27.2755 75.333 28.4573V85.2206C75.3324 86.4032 74.863 87.5372 74.028 88.3734C73.1929 89.2095 72.0605 89.6796 70.8796 89.6802ZM42.1319 26.2759C41.5543 26.2765 41.0006 26.5065 40.5922 26.9154C40.1838 27.3244 39.9541 27.8789 39.9535 28.4573V85.2206C39.9541 85.799 40.1838 86.3535 40.5922 86.7625C41.0006 87.1714 41.5543 87.4014 42.1319 87.402H70.8819C71.4591 87.4008 72.0122 87.1706 72.4201 86.7617C72.828 86.3528 73.0574 85.7986 73.058 85.2206V28.4573C73.0574 27.8789 72.8277 27.3244 72.4193 26.9154C72.0109 26.5065 71.4572 26.2765 70.8796 26.2759H42.1319Z" fill="black"/>
<path d="M38.8171 45.4375H35.2796C35.0278 45.4376 34.7832 45.3539 34.5841 45.1996C34.3851 45.0453 34.2427 44.8292 34.1796 44.5852L32.0352 36.2784C32.0117 36.1854 31.9998 36.0898 32 35.9939V31.7596C32 31.4578 32.1197 31.1684 32.3329 30.955C32.546 30.7416 32.835 30.6217 33.1364 30.6217H38.8182C39.1196 30.6217 39.4086 30.7416 39.6217 30.955C39.8348 31.1684 39.9546 31.4578 39.9546 31.7596V44.2996C39.9546 44.4492 39.9251 44.5972 39.868 44.7353C39.8108 44.8735 39.727 44.999 39.6213 45.1047C39.5157 45.2103 39.3903 45.2941 39.2523 45.3513C39.1143 45.4084 38.9664 45.4377 38.8171 45.4375ZM36.1602 43.1617H37.6807V32.8976H34.2716V35.8562L36.1602 43.1617Z" fill="black"/>
<path d="M38.8171 64.2487H35.2795C35.0277 64.2486 34.783 64.1647 34.5838 64.0103C34.3847 63.8558 34.2425 63.6394 34.1796 63.3952L32.0352 55.0883C32.0116 54.995 31.9997 54.899 32 54.8027V50.5696C32 50.2678 32.1197 49.9784 32.3328 49.765C32.5459 49.5516 32.835 49.4317 33.1364 49.4317H38.8182C39.1196 49.4317 39.4086 49.5516 39.6217 49.765C39.8348 49.9784 39.9546 50.2678 39.9546 50.5696V63.1107C39.9546 63.2603 39.9251 63.4083 39.8679 63.5465C39.8108 63.6846 39.727 63.8101 39.6213 63.9158C39.5157 64.0215 39.3903 64.1053 39.2523 64.1624C39.1143 64.2195 38.9664 64.2488 38.8171 64.2487ZM36.1602 61.9728H37.6807V51.7075H34.2716V54.6662L36.1602 61.9728Z" fill="black"/>
<path d="M38.8171 83.0586H35.2796C35.0278 83.0586 34.7832 82.9749 34.5841 82.8207C34.3851 82.6664 34.2427 82.4503 34.1796 82.2063L32.0352 73.8994C32.0117 73.8064 31.9998 73.7109 32 73.6149V69.3796C32 69.0778 32.1197 68.7883 32.3329 68.5749C32.546 68.3615 32.835 68.2416 33.1364 68.2416H38.8182C39.1196 68.2416 39.4086 68.3615 39.6217 68.5749C39.8348 68.7883 39.9546 69.0778 39.9546 69.3796V81.9207C39.9546 82.0702 39.9251 82.2183 39.868 82.3564C39.8108 82.4946 39.727 82.62 39.6213 82.7257C39.5157 82.8314 39.3903 82.9152 39.2523 82.9723C39.1143 83.0294 38.9664 83.0588 38.8171 83.0586ZM36.1602 80.7828H37.6807V70.5186H34.2716V73.4772L36.1602 80.7828Z" fill="black"/>
<path d="M77.7317 45.4375H74.1942C73.8928 45.4375 73.6038 45.3177 73.3907 45.1043C73.1776 44.8909 73.0579 44.6014 73.0579 44.2996V31.7596C73.0579 31.4578 73.1776 31.1684 73.3907 30.955C73.6038 30.7416 73.8928 30.6217 74.1942 30.6217H79.876C80.1774 30.6217 80.4665 30.7416 80.6796 30.955C80.8927 31.1684 81.0124 31.4578 81.0124 31.7596V35.9973C81.0126 36.0932 81.0008 36.1888 80.9772 36.2818L78.8329 44.5886C78.769 44.8322 78.6262 45.0477 78.427 45.2013C78.2277 45.3549 77.9832 45.438 77.7317 45.4375ZM75.3306 43.1617H76.8465L78.734 35.8528V32.8941H75.3249L75.3306 43.1617Z" fill="black"/>
<path d="M77.7317 64.2487H74.1942C73.8928 64.2487 73.6038 64.1288 73.3907 63.9154C73.1776 63.702 73.0579 63.4125 73.0579 63.1107V50.5696C73.0579 50.2678 73.1776 49.9784 73.3907 49.765C73.6038 49.5516 73.8928 49.4317 74.1942 49.4317H79.876C80.1774 49.4317 80.4664 49.5516 80.6796 49.765C80.8927 49.9784 81.0124 50.2678 81.0124 50.5696V54.8073C81.0127 54.9036 81.0008 54.9995 80.9772 55.0929L78.8328 63.3998C78.769 63.6433 78.6262 63.8588 78.427 64.0124C78.2277 64.166 77.9832 64.2491 77.7317 64.2487ZM75.3306 61.9728H76.8465L78.734 54.6628V51.7041H75.3249L75.3306 61.9728Z" fill="black"/>
<path d="M77.7317 83.0586H74.1942C73.8928 83.0586 73.6038 82.9387 73.3907 82.7253C73.1776 82.5119 73.0579 82.2225 73.0579 81.9207V69.3796C73.0579 69.0778 73.1776 68.7883 73.3907 68.5749C73.6038 68.3615 73.8928 68.2416 74.1942 68.2416H79.876C80.1774 68.2416 80.4665 68.3615 80.6796 68.5749C80.8927 68.7883 81.0124 69.0778 81.0124 69.3796V73.6138C81.0126 73.7097 81.0008 73.8053 80.9772 73.8983L78.8329 82.2052C78.7698 82.4496 78.6275 82.6661 78.4281 82.8206C78.2288 82.9751 77.9838 83.0588 77.7317 83.0586ZM75.3306 80.7828H76.8465L78.734 73.4738V70.5152H75.3249L75.3306 80.7828Z" fill="black"/>
<path d="M56.3261 46.4418C54.8011 46.4421 53.3103 45.9894 52.0422 45.1411C50.7741 44.2929 49.7857 43.0871 49.202 41.6763C48.6182 40.2655 48.4654 38.7131 48.7628 37.2153C49.0602 35.7175 49.7944 34.3417 50.8727 33.2618C51.9509 32.1819 53.3248 31.4464 54.8205 31.1484C56.3161 30.8504 57.8665 31.0033 59.2754 31.5876C60.6843 32.172 61.8886 33.1616 62.7358 34.4313C63.5831 35.701 64.0353 37.1938 64.0353 38.7209C64.0331 40.7678 63.2202 42.7302 61.775 44.1776C60.3297 45.6251 58.3701 46.4394 56.3261 46.4418ZM56.3261 33.094C55.2145 33.0938 54.1278 33.4237 53.2034 34.042C52.279 34.6603 51.5585 35.5392 51.1329 36.5675C50.7074 37.5959 50.596 38.7275 50.8127 39.8193C51.0294 40.9111 51.5646 41.914 52.3506 42.7012C53.1365 43.4884 54.138 44.0245 55.2282 44.2417C56.3185 44.459 57.4485 44.3476 58.4756 43.9216C59.5026 43.4957 60.3804 42.7743 60.998 41.8488C61.6156 40.9233 61.9453 39.8351 61.9453 38.722C61.9436 37.23 61.3511 35.7997 60.2977 34.7446C59.2443 33.6895 57.816 33.0959 56.3261 33.094Z" fill="black"/>
<path d="M56.3261 64.7474C54.8011 64.7477 53.3103 64.295 52.0422 63.4467C50.7741 62.5985 49.7857 61.3927 49.202 59.9819C48.6182 58.5711 48.4654 57.0187 48.7628 55.5209C49.0602 54.0231 49.7944 52.6473 50.8727 51.5674C51.9509 50.4875 53.3248 49.752 54.8205 49.454C56.3161 49.156 57.8665 49.3089 59.2754 49.8932C60.6843 50.4776 61.8886 51.4672 62.7358 52.7369C63.5831 54.0066 64.0353 55.4994 64.0353 57.0265C64.0331 59.0734 63.2202 61.0358 61.775 62.4832C60.3297 63.9307 58.3701 64.745 56.3261 64.7474ZM56.3261 51.3996C55.2144 51.3994 54.1277 51.7293 53.2033 52.3476C52.2789 52.966 51.5584 53.8449 51.1328 54.8733C50.7073 55.9018 50.5959 57.0335 50.8128 58.1253C51.0296 59.2171 51.5649 60.22 52.351 61.0071C53.137 61.7943 54.1385 62.3303 55.2289 62.5474C56.3192 62.7646 57.4493 62.653 58.4763 62.2269C59.5033 61.8008 60.381 61.0793 60.9985 60.1536C61.616 59.228 61.9455 58.1397 61.9453 57.0265C61.9436 55.5347 61.3511 54.1044 60.2976 53.0495C59.2442 51.9946 57.8159 51.4013 56.3261 51.3996Z" fill="black"/>
<path d="M56.3261 83.0521C54.8009 83.0523 53.3099 82.5995 52.0417 81.751C50.7735 80.9025 49.7851 79.6965 49.2015 78.2854C48.6179 76.8743 48.4654 75.3215 48.7632 73.8236C49.061 72.3257 49.7958 70.9499 50.8745 69.8702C51.9533 68.7905 53.3277 68.0554 54.8237 67.758C56.3197 67.4606 57.8702 67.6142 59.279 68.1994C60.6879 68.7845 61.8918 69.7749 62.7384 71.0454C63.585 72.3158 64.0364 73.8091 64.0354 75.3364C64.032 77.3824 63.2186 79.3437 61.7735 80.79C60.3283 82.2364 58.3693 83.0499 56.3261 83.0521ZM56.3261 69.7043C55.2147 69.704 54.1281 70.0338 53.2038 70.6519C52.2795 71.27 51.559 72.1487 51.1334 73.1768C50.7077 74.2049 50.596 75.3363 50.8124 76.428C51.0288 77.5197 51.5636 78.5226 52.3491 79.3099C53.1347 80.0973 54.1357 80.6337 55.2257 80.8515C56.3156 81.0692 57.4456 80.9584 58.4727 80.5331C59.4998 80.1078 60.3779 79.3871 60.996 78.4621C61.6141 77.5371 61.9445 76.4494 61.9453 75.3364C61.945 73.8437 61.3531 72.412 60.2995 71.356C59.2459 70.3 57.8168 69.7059 56.3261 69.7043Z" fill="black"/>
<path d="M52 113.784V88H61V113.862C60.1714 113.919 59.338 113.959 58.5 113.981V92.5H54.5V113.946C53.6618 113.91 52.8284 113.856 52 113.784Z" fill="black"/>
</svg>
