<svg width="20" height="19" viewBox="0 0 20 19" fill="none" xmlns="http://www.w3.org/2000/svg">
<path fill-rule="evenodd" clip-rule="evenodd" d="M9.99992 18.6667C4.93731 18.6667 0.833252 14.5626 0.833252 9.50001C0.833252 4.4374 4.93731 0.333344 9.99992 0.333344C15.0625 0.333344 19.1666 4.4374 19.1666 9.50001C19.1666 14.5626 15.0625 18.6667 9.99992 18.6667ZM9.99992 17C14.1421 17 17.4999 13.6421 17.4999 9.50001C17.4999 5.35787 14.1421 2.00001 9.99992 2.00001C5.85778 2.00001 2.49992 5.35787 2.49992 9.50001C2.49992 13.6421 5.85778 17 9.99992 17ZM12.744 6.41075L8.33324 10.8215L6.42249 8.91075L5.24398 10.0893L8.33324 13.1785L13.9225 7.58926L12.744 6.41075Z" fill="#697667"/>
</svg>
