<svg
  width="128"
  height="54"
  viewBox="0 0 128 54"
  fill="none"
  xmlns="http://www.w3.org/2000/svg"
>
  <path
    d="M12 54V46.5504H16.7046C17.2222 46.5504 17.6333 46.399 17.9378 46.0961C18.2728 45.8236 18.4402 45.4451 18.4402 44.9605V21.2489H27.1643V46.7321C27.1643 48.973 26.5096 50.7446 25.2002 52.0468C23.9213 53.3489 22.1095 54 19.7648 54H12ZM22.8251 18.8414C21.5462 18.8414 20.45 18.3872 19.5365 17.4787C18.6229 16.5399 18.1662 15.4497 18.1662 14.2081C18.1662 12.9363 18.6229 11.8461 19.5365 10.9376C20.45 9.9988 21.5462 9.52942 22.8251 9.52942C24.104 9.52942 25.2002 9.9988 26.1137 10.9376C27.0272 11.8461 27.484 12.9363 27.484 14.2081C27.484 15.4497 27.0272 16.5399 26.1137 17.4787C25.2002 18.3872 24.104 18.8414 22.8251 18.8414Z"
    fill="#78E08F"
  />
  <path
    d="M43.4818 45.3694C41.0153 45.3694 38.8534 44.9151 36.9959 44.0066C35.1384 43.0678 33.692 41.8111 32.6567 40.2364C31.6214 38.6314 31.1038 36.8144 31.1038 34.7854V21.2489H39.8278V34.2403C39.8278 34.7854 39.9648 35.3154 40.2389 35.8302C40.5129 36.345 40.9088 36.769 41.4264 37.1021C41.9745 37.4049 42.5988 37.5563 43.2991 37.5563C43.9995 37.5563 44.5933 37.4049 45.0805 37.1021C45.5981 36.769 45.994 36.345 46.268 35.8302C46.5421 35.3154 46.6791 34.7854 46.6791 34.2403V21.2489H55.4488V34.7854C55.4488 36.8144 54.9616 38.6314 53.9872 40.2364C53.0432 41.8111 51.673 43.0678 49.8764 44.0066C48.0798 44.9151 45.9483 45.3694 43.4818 45.3694Z"
    fill="#78E08F"
  />
  <path
    d="M59.3387 44.7788V38.6011H70.3922C70.6358 38.6011 70.8337 38.5557 70.9859 38.4648C71.1382 38.3437 71.26 38.2074 71.3513 38.056C71.4427 37.8743 71.4884 37.6926 71.4884 37.5109C71.4884 37.3292 71.4427 37.1627 71.3513 37.0112C71.26 36.8295 71.1382 36.6933 70.9859 36.6024C70.8337 36.5116 70.6358 36.4662 70.3922 36.4662H66.8295C65.2765 36.4662 63.8606 36.2087 62.5817 35.6939C61.3027 35.1488 60.2827 34.3161 59.5214 33.1956C58.7906 32.0448 58.4252 30.5761 58.4252 28.7894C58.4252 27.3964 58.7601 26.1396 59.4301 25.0192C60.1304 23.8684 61.0744 22.9599 62.2619 22.2937C63.4495 21.5972 64.7589 21.2489 66.19 21.2489H78.2027V27.4267H68.2454C67.9409 27.4267 67.6821 27.5327 67.4689 27.7446C67.2862 27.9566 67.1949 28.1989 67.1949 28.4714C67.1949 28.744 67.2862 28.9862 67.4689 29.1982C67.6821 29.4102 67.9409 29.5162 68.2454 29.5162H71.5341C73.3002 29.5162 74.8227 29.7887 76.1016 30.3338C77.411 30.8487 78.4158 31.6663 79.1162 32.7868C79.8165 33.9072 80.1667 35.3608 80.1667 37.1475C80.1667 38.5405 79.8013 39.8124 79.0705 40.9632C78.3701 42.1139 77.4262 43.0376 76.2386 43.7341C75.0511 44.4306 73.7113 44.7788 72.2192 44.7788H59.3387Z"
    fill="#78E08F"
  />
  <path
    d="M92.1262 44.7788C89.812 44.7788 88.0002 44.1277 86.6908 42.8256C85.3815 41.5234 84.7268 39.7519 84.7268 37.5109V15.798H93.4965V36.6933C93.4965 36.9961 93.603 37.2535 93.8162 37.4655C94.0293 37.6472 94.2882 37.738 94.5927 37.738H99.754V44.7788H92.1262ZM81.1641 27.8809V21.2489H99.754V27.8809H81.1641Z"
    fill="#78E08F"
  />
  <path
    d="M115.074 45.3239C112.699 45.3239 110.522 44.8091 108.542 43.7795C106.593 42.7499 105.025 41.3114 103.838 39.4642C102.681 37.5866 102.102 35.4365 102.102 33.0139C102.102 30.5912 102.681 28.4563 103.838 26.609C105.025 24.7618 106.609 23.3233 108.588 22.2937C110.567 21.2338 112.744 20.7038 115.12 20.7038C117.495 20.7038 119.657 21.2338 121.605 22.2937C123.554 23.3233 125.107 24.7618 126.264 26.609C127.421 28.4563 128 30.5912 128 33.0139C128 35.4365 127.421 37.5866 126.264 39.4642C125.107 41.3114 123.539 42.7499 121.56 43.7795C119.611 44.8091 117.449 45.3239 115.074 45.3239ZM115.074 37.5109C115.896 37.5109 116.627 37.3141 117.266 36.9204C117.906 36.5267 118.393 35.9968 118.728 35.3305C119.093 34.634 119.276 33.8467 119.276 32.9685C119.276 32.0903 119.093 31.318 118.728 30.6518C118.393 29.9856 117.906 29.4556 117.266 29.062C116.627 28.6683 115.896 28.4714 115.074 28.4714C114.252 28.4714 113.521 28.6683 112.881 29.062C112.242 29.4556 111.74 29.9856 111.374 30.6518C111.009 31.318 110.826 32.0903 110.826 32.9685C110.826 33.8467 111.009 34.634 111.374 35.3305C111.74 35.9968 112.242 36.5267 112.881 36.9204C113.521 37.3141 114.252 37.5109 115.074 37.5109Z"
    fill="#78E08F"
  />
  <path
    d="M24.2876 3.51687C24.013 3.20137 23.5461 3.17269 23.2441 3.4595C23.1617 3.54555 15.0053 11.2036 9.95214 7.73308C7.94737 6.35636 7.45304 3.02928 7.45304 3.0006C7.42558 2.65642 7.17842 2.39828 6.84887 2.34092C6.54678 2.31224 6.21723 2.48433 6.07991 2.77114C4.78917 5.75404 2.50977 9.54003 1.87813 9.1098C1.8232 9.1098 1.71335 8.99508 1.63097 8.7943C1.30141 7.84781 1.41126 6.81527 1.87813 5.92613C2.92171 3.68896 4.84409 2.08278 7.15096 1.48047C7.39812 1.4231 7.59036 1.22233 7.67275 0.964195C7.75513 0.70606 7.67275 0.419242 7.50797 0.21847C7.31573 0.0463798 7.06857 -0.0396656 6.8214 0.0176979C4.07514 0.70606 1.79574 2.65642 0.559923 5.29513C-0.09918 6.58581 -0.181568 8.13463 0.340222 9.48267C0.587386 10.1423 1.19156 10.6013 1.87813 10.6013H1.90559C3.25126 10.5726 4.92648 8.82299 6.07991 6.92999C6.21723 6.70054 6.46439 6.58581 6.71155 6.61449C6.95872 6.61449 7.17842 6.7579 7.28827 6.98736C7.75513 7.79044 8.38677 8.47881 9.15573 8.96639C15.1426 13.1252 23.8482 4.92227 24.2327 4.57809C24.37 4.43468 24.4524 4.23391 24.4524 4.06182C24.4799 3.86105 24.3975 3.66028 24.2876 3.51687Z"
    fill="black"
  />
  <path
    d="M46.1374 2.97191C46.0275 2.82851 45.8353 2.74246 45.6431 2.74246C45.4508 2.74246 45.2586 2.79982 45.1213 2.94323C41.3314 6.70054 35.0974 7.50363 30.621 7.79044C30.4837 7.81912 30.4013 7.58967 30.4837 7.44626C30.8407 6.95867 31.0879 6.38504 31.1977 5.78272C31.4174 4.23391 30.5386 2.74246 29.0831 2.31224C27.7923 1.76728 26.3917 2.59905 24.8538 4.7215C24.744 4.86491 24.6067 4.80755 24.6341 4.63546C24.744 3.775 24.8538 2.94323 24.9637 2.16883C25.0186 1.88201 24.9088 1.62387 24.7165 1.45178C24.4968 1.25101 24.2222 1.22233 23.975 1.33706C23.7279 1.4231 23.5631 1.68124 23.5356 1.93937C23.2335 4.23391 22.8765 6.61449 22.4921 8.90903C19.993 14.1578 17.2742 22.246 18.5649 23.508C18.7571 23.7088 19.0318 23.8235 19.3064 23.8235C19.4437 23.8235 19.5536 23.8235 19.6909 23.7662C21.2562 23.1925 22.7667 16.1081 23.8926 9.31058C23.9201 9.25321 23.9201 9.22453 23.9476 9.19585C24.7165 7.41758 25.7876 5.78272 27.0783 4.37732C27.4903 3.97578 28.0944 3.51687 28.5613 3.71764C29.495 4.11918 29.907 4.7215 29.7697 5.52459C29.4126 6.84395 28.3141 7.84781 26.9959 8.04858C26.8312 8.04858 26.6664 8.07726 26.5016 8.07726C26.1171 8.13462 25.8425 8.4788 25.8425 8.88035C25.8974 9.28189 26.1995 9.56871 26.584 9.56871C26.7762 9.56871 26.9685 9.56871 27.1607 9.54003C27.6825 9.48267 28.2867 9.45398 28.9732 9.4253C33.6144 9.13848 41.4138 8.70826 46.1099 4.03314C46.2747 3.91841 46.3296 3.71764 46.3571 3.51687C46.3571 3.3161 46.2747 3.11532 46.1374 2.97191ZM19.6909 21.3856C20.0479 19.6647 20.4873 17.9725 21.064 16.3376C20.7344 18.0585 20.2676 19.722 19.6909 21.3856Z"
    fill="black"
  />
  <path
    d="M67.7803 2.97191C67.6704 2.82851 67.4782 2.74246 67.286 2.74246C67.0937 2.74246 66.9015 2.79982 66.7642 2.94323C62.9743 6.70054 56.7403 7.50363 52.2639 7.79044C52.1266 7.81912 52.0442 7.58967 52.1266 7.44626C52.4836 6.95867 52.7308 6.38504 52.8406 5.78272C53.0603 4.23391 52.1815 2.74246 50.726 2.31224C49.4353 1.76728 48.0347 2.59905 46.4968 4.7215C46.3869 4.86491 46.2496 4.80755 46.2771 4.63546C46.3869 3.775 46.4968 2.94323 46.6066 2.16883C46.6615 1.88201 46.5517 1.62387 46.3594 1.45178C46.1397 1.25101 45.8651 1.22233 45.618 1.33706C45.3708 1.4231 45.206 1.68124 45.1786 1.93937C44.8765 4.23391 44.5194 6.61449 44.135 8.90903C41.6359 14.1578 38.9171 22.246 40.2078 23.508C40.4001 23.7088 40.6747 23.8235 40.9493 23.8235C41.0866 23.8235 41.1965 23.8235 41.3338 23.7662C42.8992 23.1925 44.4096 16.1081 45.5356 9.31058C45.563 9.25321 45.563 9.22453 45.5905 9.19585C46.3594 7.41758 47.4305 5.78272 48.7212 4.37732C49.1332 3.97578 49.7374 3.51687 50.2042 3.71764C51.1379 4.11918 51.5499 4.7215 51.4126 5.52459C51.0556 6.84395 49.957 7.84781 48.6388 8.04858C48.4741 8.04858 48.3093 8.07726 48.1445 8.07726C47.76 8.13462 47.4854 8.4788 47.4854 8.88035C47.5403 9.28189 47.8424 9.56871 48.2269 9.56871C48.4191 9.56871 48.6114 9.56871 48.8036 9.54003C49.3254 9.48267 49.9296 9.45398 50.6161 9.4253C55.2573 9.13848 63.0567 8.70826 67.7528 4.03314C67.9176 3.91841 67.9725 3.71764 68 3.51687C68 3.3161 67.9176 3.11532 67.7803 2.97191ZM41.3338 21.3856C41.6908 19.6647 42.1302 17.9725 42.7069 16.3376C42.3774 18.0585 41.9105 19.722 41.3338 21.3856Z"
    fill="black"
  />
</svg>
