<svg width="120" height="50" viewBox="0 0 120 50" fill="none" xmlns="http://www.w3.org/2000/svg">
<path d="M11.25 50V43.1022H15.6605C16.1458 43.1022 16.5312 42.962 16.8167 42.6816C17.1307 42.4292 17.2877 42.0787 17.2877 41.6301V19.6749H25.4665V43.2704C25.4665 45.3453 24.8527 46.9857 23.6252 48.1914C22.4262 49.3971 20.7277 50 18.5295 50H11.25ZM21.3985 17.4457C20.1995 17.4457 19.1718 17.0251 18.3154 16.1839C17.459 15.3147 17.0308 14.3053 17.0308 13.1556C17.0308 11.978 17.459 10.9685 18.3154 10.1273C19.1718 9.2581 20.1995 8.82349 21.3985 8.82349C22.5975 8.82349 23.6252 9.2581 24.4816 10.1273C25.338 10.9685 25.7662 11.978 25.7662 13.1556C25.7662 14.3053 25.338 15.3147 24.4816 16.1839C23.6252 17.0251 22.5975 17.4457 21.3985 17.4457Z" fill="white"/>
<path d="M40.7642 42.0086C38.4519 42.0086 36.425 41.588 34.6837 40.7468C32.9423 39.8776 31.5863 38.7139 30.6157 37.2559C29.6451 35.7698 29.1598 34.0874 29.1598 32.2087V19.6749H37.3385V31.704C37.3385 32.2087 37.467 32.6994 37.7239 33.1761C37.9809 33.6527 38.352 34.0453 38.8373 34.3537C39.3511 34.6341 39.9363 34.7743 40.5929 34.7743C41.2495 34.7743 41.8062 34.6341 42.2629 34.3537C42.7482 34.0453 43.1193 33.6527 43.3763 33.1761C43.6332 32.6994 43.7617 32.2087 43.7617 31.704V19.6749H51.9832V32.2087C51.9832 34.0874 51.5265 35.7698 50.613 37.2559C49.728 38.7139 48.4434 39.8776 46.7591 40.7468C45.0748 41.588 43.0765 42.0086 40.7642 42.0086Z" fill="white"/>
<path d="M55.63 41.4618V35.7417H65.9927C66.221 35.7417 66.4066 35.6996 66.5493 35.6155C66.6921 35.5034 66.8062 35.3772 66.8919 35.237C66.9775 35.0688 67.0204 34.9005 67.0204 34.7323C67.0204 34.564 66.9775 34.4098 66.8919 34.2696C66.8062 34.1014 66.6921 33.9752 66.5493 33.8911C66.4066 33.807 66.221 33.7649 65.9927 33.7649H62.6526C61.1967 33.7649 59.8693 33.5266 58.6703 33.0499C57.4713 32.5452 56.515 31.7741 55.8013 30.7366C55.1162 29.6711 54.7736 28.3112 54.7736 26.6568C54.7736 25.367 55.0876 24.2033 55.7157 23.1659C56.3723 22.1003 57.2572 21.2591 58.3706 20.6423C59.4839 19.9974 60.7114 19.6749 62.0531 19.6749H73.315V25.395H63.9801C63.6946 25.395 63.452 25.4932 63.2521 25.6894C63.0808 25.8857 62.9952 26.11 62.9952 26.3624C62.9952 26.6148 63.0808 26.8391 63.2521 27.0353C63.452 27.2316 63.6946 27.3298 63.9801 27.3298H67.0632C68.7189 27.3298 70.1463 27.5821 71.3452 28.0868C72.5728 28.5635 73.5148 29.3206 74.1714 30.3581C74.828 31.3955 75.1563 32.7414 75.1563 34.3958C75.1563 35.6856 74.8137 36.8633 74.1286 37.9288C73.472 38.9943 72.5871 39.8495 71.4737 40.4945C70.3604 41.1394 69.1043 41.4618 67.7055 41.4618H55.63Z" fill="white"/>
<path d="M86.3683 41.4618C84.1987 41.4618 82.5002 40.859 81.2726 39.6533C80.0451 38.4476 79.4313 36.8072 79.4313 34.7323V14.6277H87.6529V33.9752C87.6529 34.2556 87.7528 34.4939 87.9527 34.6902C88.1525 34.8585 88.3952 34.9426 88.6806 34.9426H93.5194V41.4618H86.3683ZM76.0913 25.8156V19.6749H93.5194V25.8156H76.0913Z" fill="white"/>
<path d="M107.882 41.9666C105.655 41.9666 103.614 41.4899 101.758 40.5365C99.9313 39.5832 98.4612 38.2513 97.3478 36.5408C96.263 34.8024 95.7206 32.8116 95.7206 30.5684C95.7206 28.3252 96.263 26.3484 97.3478 24.6379C98.4612 22.9275 99.9456 21.5956 101.801 20.6423C103.657 19.6609 105.698 19.1702 107.925 19.1702C110.151 19.1702 112.178 19.6609 114.005 20.6423C115.832 21.5956 117.288 22.9275 118.373 24.6379C119.458 26.3484 120 28.3252 120 30.5684C120 32.8116 119.458 34.8024 118.373 36.5408C117.288 38.2513 115.818 39.5832 113.962 40.5365C112.135 41.4899 110.108 41.9666 107.882 41.9666ZM107.882 34.7323C108.652 34.7323 109.338 34.55 109.937 34.1855C110.537 33.821 110.993 33.3303 111.307 32.7134C111.65 32.0685 111.821 31.3395 111.821 30.5263C111.821 29.7132 111.65 28.9981 111.307 28.3813C110.993 27.7644 110.537 27.2737 109.937 26.9092C109.338 26.5447 108.652 26.3624 107.882 26.3624C107.111 26.3624 106.426 26.5447 105.826 26.9092C105.227 27.2737 104.756 27.7644 104.413 28.3813C104.071 28.9981 103.899 29.7132 103.899 30.5263C103.899 31.3395 104.071 32.0685 104.413 32.7134C104.756 33.3303 105.227 33.821 105.826 34.1855C106.426 34.55 107.111 34.7323 107.882 34.7323Z" fill="white"/>
<path d="M22.7697 3.25636C22.5122 2.96423 22.0745 2.93767 21.7913 3.20325C21.7141 3.28292 14.0674 10.3737 9.33013 7.16026C7.45066 5.88552 6.98723 2.80489 6.98723 2.77833C6.96148 2.45964 6.72977 2.22063 6.42081 2.16752C6.1376 2.14096 5.82865 2.3003 5.69992 2.56587C4.48985 5.32782 2.35291 8.83336 1.76075 8.43501C1.70925 8.43501 1.60627 8.32878 1.52903 8.14288C1.22008 7.26649 1.32306 6.31043 1.76075 5.48716C2.7391 3.4157 4.54134 1.9285 6.70402 1.3708C6.93574 1.31769 7.11596 1.13179 7.1932 0.892773C7.27044 0.65376 7.1932 0.388187 7.03872 0.202287C6.8585 0.0429442 6.62678 -0.0367274 6.39507 0.016387C3.82044 0.653759 1.68351 2.45965 0.524928 4.9029C-0.0929812 6.09798 -0.17022 7.53206 0.318958 8.78025C0.550674 9.39106 1.11709 9.81598 1.76075 9.81598H1.78649C3.04806 9.78942 4.61858 8.16943 5.69992 6.41666C5.82865 6.2042 6.06036 6.09798 6.29208 6.12453C6.5238 6.12453 6.72977 6.25732 6.83275 6.46978C7.27044 7.21338 7.8626 7.85075 8.58349 8.30222C14.1962 12.153 22.3577 4.55766 22.7182 4.23897C22.8469 4.10619 22.9241 3.92029 22.9241 3.76095C22.9499 3.57505 22.8726 3.38915 22.7697 3.25636Z" fill="black"/>
<path d="M43.2538 2.75177C43.1508 2.61899 42.9706 2.53932 42.7904 2.53932C42.6101 2.53932 42.4299 2.59243 42.3012 2.72522C38.7482 6.2042 32.9038 6.9478 28.7072 7.21338C28.5785 7.23993 28.5012 7.02748 28.5784 6.89469C28.9132 6.44322 29.1449 5.91208 29.2478 5.35438C29.4538 3.92029 28.6299 2.53932 27.2654 2.14096C26.0553 1.63637 24.7423 2.40653 23.3005 4.37176C23.1975 4.50455 23.0688 4.45143 23.0945 4.29209C23.1975 3.49537 23.3005 2.72522 23.4035 2.00817C23.455 1.7426 23.352 1.50359 23.1717 1.34424C22.9658 1.15834 22.7083 1.13179 22.4766 1.23802C22.2449 1.31769 22.0904 1.5567 22.0647 1.79572C21.7814 3.92029 21.4467 6.12453 21.0863 8.24911C18.7434 13.1091 16.1945 20.5982 17.4046 21.7667C17.5848 21.9526 17.8423 22.0588 18.0997 22.0588C18.2285 22.0588 18.3315 22.0588 18.4602 22.0057C19.9277 21.4746 21.3438 14.915 22.3994 8.62091C22.4251 8.56779 22.4251 8.54123 22.4508 8.51468C23.1717 6.86813 24.1758 5.35438 25.3859 4.05307C25.7721 3.68127 26.3385 3.25636 26.7762 3.44226C27.6516 3.81406 28.0378 4.37176 27.909 5.11536C27.5743 6.33699 26.5445 7.26649 25.3087 7.45239C25.1542 7.45239 24.9997 7.47895 24.8452 7.47895C24.4848 7.53206 24.2273 7.85075 24.2273 8.22255C24.2788 8.59435 24.562 8.85992 24.9225 8.85992C25.1027 8.85992 25.2829 8.85992 25.4632 8.83336C25.9523 8.78025 26.5187 8.75369 27.1624 8.72713C31.5135 8.46156 38.8254 8.0632 43.228 3.73439C43.3825 3.62816 43.434 3.44226 43.4598 3.25636C43.4598 3.07046 43.3825 2.88456 43.2538 2.75177ZM18.4602 19.8015C18.7949 18.208 19.2068 16.6412 19.7475 15.1274C19.4385 16.7208 19.0009 18.2612 18.4602 19.8015Z" fill="black"/>
<path d="M63.544 2.75177C63.441 2.61899 63.2608 2.53932 63.0806 2.53932C62.9004 2.53932 62.7201 2.59243 62.5914 2.72522C59.0384 6.2042 53.194 6.9478 48.9974 7.21338C48.8687 7.23993 48.7914 7.02748 48.8687 6.89469C49.2034 6.44322 49.4351 5.91208 49.5381 5.35438C49.7441 3.92029 48.9202 2.53932 47.5556 2.14096C46.3456 1.63637 45.0325 2.40653 43.5907 4.37176C43.4877 4.50455 43.359 4.45143 43.3847 4.29209C43.4877 3.49537 43.5907 2.72522 43.6937 2.00817C43.7452 1.7426 43.6422 1.50359 43.462 1.34424C43.256 1.15834 42.9985 1.13179 42.7668 1.23802C42.5351 1.31769 42.3806 1.5567 42.3549 1.79572C42.0717 3.92029 41.737 6.12453 41.3765 8.24911C39.0336 13.1091 36.4848 20.5982 37.6948 21.7667C37.875 21.9526 38.1325 22.0588 38.39 22.0588C38.5187 22.0588 38.6217 22.0588 38.7504 22.0057C40.218 21.4746 41.634 14.915 42.6896 8.62091C42.7153 8.56779 42.7153 8.54123 42.7411 8.51468C43.462 6.86813 44.4661 5.35438 45.6762 4.05307C46.0623 3.68127 46.6288 3.25636 47.0664 3.44226C47.9418 3.81406 48.328 4.37176 48.1993 5.11536C47.8646 6.33699 46.8347 7.26649 45.5989 7.45239C45.4444 7.45239 45.29 7.47895 45.1355 7.47895C44.775 7.53206 44.5176 7.85075 44.5176 8.22255C44.5691 8.59435 44.8523 8.85992 45.2127 8.85992C45.3929 8.85992 45.5732 8.85992 45.7534 8.83336C46.2426 8.78025 46.809 8.75369 47.4526 8.72713C51.8037 8.46156 59.1157 8.0632 63.5183 3.73439C63.6728 3.62816 63.7243 3.44226 63.75 3.25636C63.75 3.07046 63.6728 2.88456 63.544 2.75177ZM38.7504 19.8015C39.0851 18.208 39.4971 16.6412 40.0377 15.1274C39.7288 16.7208 39.2911 18.2612 38.7504 19.8015Z" fill="black"/>
</svg>
