<svg width="40" height="40" viewBox="0 0 40 40" fill="none" xmlns="http://www.w3.org/2000/svg">
<mask id="mask0" mask-type="alpha" maskUnits="userSpaceOnUse" x="0" y="0" width="40" height="40">
<rect width="40" height="40" fill="white"/>
</mask>
<g mask="url(#mask0)">
<path opacity="0.15" fill-rule="evenodd" clip-rule="evenodd" d="M30.4676 37.9373C33.8563 37.361 36 36.5096 36 35.5599C36 33.8239 28.8366 32.4166 20 32.4166C11.1634 32.4166 4 33.8239 4 35.5599C4 36.4235 5.77268 37.2058 8.64218 37.7739L8.64001 37.7744L19.9686 40L30.4676 37.9373Z" fill="black"/>
<mask id="path-3-inside-1" fill="white">
<path fill-rule="evenodd" clip-rule="evenodd" d="M30.4676 29.1202C33.8563 26.08 36 21.5895 36 16.5802C36 7.42323 28.8366 0 20 0C11.1634 0 4 7.42323 4 16.5802C4 21.1354 5.77268 25.2616 8.64218 28.2584L8.64001 28.2606L19.9686 40L30.4676 29.1202Z"/>
</mask>
<path fill-rule="evenodd" clip-rule="evenodd" d="M30.4676 29.1202C33.8563 26.08 36 21.5895 36 16.5802C36 7.42323 28.8366 0 20 0C11.1634 0 4 7.42323 4 16.5802C4 21.1354 5.77268 25.2616 8.64218 28.2584L8.64001 28.2606L19.9686 40L30.4676 29.1202Z" fill="url(#paint0_linear)"/>
<path d="M30.4676 29.1202L29.7998 28.3758L29.7731 28.3999L29.7481 28.4258L30.4676 29.1202ZM8.64218 28.2584L9.36171 28.9528L10.0293 28.2611L9.36446 27.5667L8.64218 28.2584ZM8.64001 28.2606L7.92049 27.5661L7.25027 28.2605L7.92043 28.955L8.64001 28.2606ZM19.9686 40L19.249 40.6944L19.9686 41.4401L20.6882 40.6944L19.9686 40ZM35 16.5802C35 21.3001 32.9811 25.5217 29.7998 28.3758L31.1354 29.8645C34.7315 26.6383 37 21.8789 37 16.5802H35ZM20 1C28.251 1 35 7.94163 35 16.5802H37C37 6.90482 29.4221 -1 20 -1V1ZM5 16.5802C5 7.94163 11.749 1 20 1V-1C10.5779 -1 3 6.90482 3 16.5802H5ZM9.36446 27.5667C6.66948 24.7523 5 20.8724 5 16.5802H3C3 21.3985 4.87589 25.771 7.91991 28.95L9.36446 27.5667ZM9.35954 28.9551L9.36171 28.9528L7.92265 27.5639L7.92049 27.5661L9.35954 28.9551ZM20.6882 39.3056L9.3596 27.5662L7.92043 28.955L19.249 40.6944L20.6882 39.3056ZM29.7481 28.4258L19.249 39.3056L20.6882 40.6944L31.1872 29.8146L29.7481 28.4258Z" fill="white" mask="url(#path-3-inside-1)"/>
<path d="M26.6667 24.5V22.8333C26.6667 21.9493 26.3155 21.1014 25.6904 20.4763C25.0653 19.8512 24.2174 19.5 23.3334 19.5H16.6667C15.7827 19.5 14.9348 19.8512 14.3097 20.4763C13.6846 21.1014 13.3334 21.9493 13.3334 22.8333V24.5" stroke="black" stroke-linecap="round" stroke-linejoin="round"/>
<path d="M20 17.1667C21.8409 17.1667 23.3333 15.6743 23.3333 13.8333C23.3333 11.9924 21.8409 10.5 20 10.5C18.159 10.5 16.6666 11.9924 16.6666 13.8333C16.6666 15.6743 18.159 17.1667 20 17.1667Z" stroke="black" stroke-linecap="round" stroke-linejoin="round"/>
</g>
<defs>
<linearGradient id="paint0_linear" x1="4" y1="0" x2="22.0089" y2="45.5336" gradientUnits="userSpaceOnUse">
<stop stop-color="#B8E994"/>
<stop offset="0.498961" stop-color="#78E08F"/>
<stop offset="1" stop-color="#63B745"/>
</linearGradient>
</defs>
</svg>
