<svg width="40" height="40" viewBox="0 0 40 40" fill="none" xmlns="http://www.w3.org/2000/svg">
<mask id="mask0" mask-type="alpha" maskUnits="userSpaceOnUse" x="0" y="0" width="40" height="40">
<rect width="40" height="40" fill="white"/>
</mask>
<g mask="url(#mask0)">
<path opacity="0.15" fill-rule="evenodd" clip-rule="evenodd" d="M30.4676 37.9373C33.8563 37.361 36 36.5096 36 35.5599C36 33.8239 28.8366 32.4166 20 32.4166C11.1634 32.4166 4 33.8239 4 35.5599C4 36.4235 5.77268 37.2058 8.64218 37.7739L8.64001 37.7744L19.9686 40L30.4676 37.9373Z" fill="#697667"/>
<mask id="path-3-inside-1" fill="white">
<path fill-rule="evenodd" clip-rule="evenodd" d="M30.4676 29.1202C33.8563 26.08 36 21.5895 36 16.5802C36 7.42323 28.8366 0 20 0C11.1634 0 4 7.42323 4 16.5802C4 21.1354 5.77268 25.2616 8.64218 28.2584L8.64001 28.2606L19.9686 40L30.4676 29.1202Z"/>
</mask>
<path fill-rule="evenodd" clip-rule="evenodd" d="M30.4676 29.1202C33.8563 26.08 36 21.5895 36 16.5802C36 7.42323 28.8366 0 20 0C11.1634 0 4 7.42323 4 16.5802C4 21.1354 5.77268 25.2616 8.64218 28.2584L8.64001 28.2606L19.9686 40L30.4676 29.1202Z" fill="white"/>
<path d="M30.4676 29.1202L29.7998 28.3758L29.7731 28.3999L29.7481 28.4258L30.4676 29.1202ZM8.64218 28.2584L9.36171 28.9528L10.0293 28.2611L9.36446 27.5667L8.64218 28.2584ZM8.64001 28.2606L7.92049 27.5661L7.25027 28.2605L7.92043 28.955L8.64001 28.2606ZM19.9686 40L19.249 40.6944L19.9686 41.4401L20.6882 40.6944L19.9686 40ZM35 16.5802C35 21.3001 32.9811 25.5217 29.7998 28.3758L31.1354 29.8645C34.7315 26.6383 37 21.8789 37 16.5802H35ZM20 1C28.251 1 35 7.94163 35 16.5802H37C37 6.90482 29.4221 -1 20 -1V1ZM5 16.5802C5 7.94163 11.749 1 20 1V-1C10.5779 -1 3 6.90482 3 16.5802H5ZM9.36446 27.5667C6.66948 24.7523 5 20.8724 5 16.5802H3C3 21.3985 4.87589 25.771 7.91991 28.95L9.36446 27.5667ZM9.35954 28.9551L9.36171 28.9528L7.92265 27.5639L7.92049 27.5661L9.35954 28.9551ZM20.6882 39.3056L9.3596 27.5662L7.92043 28.955L19.249 40.6944L20.6882 39.3056ZM29.7481 28.4258L19.249 39.3056L20.6882 40.6944L31.1872 29.8146L29.7481 28.4258Z" fill="black" mask="url(#path-3-inside-1)"/>
</g>
<g clip-path="url(#clip0)">
<path d="M27.5 22.3333V15.6667C27.4997 15.3744 27.4225 15.0873 27.2763 14.8343C27.13 14.5813 26.9198 14.3711 26.6667 14.225L20.8333 10.8917C20.58 10.7454 20.2926 10.6684 20 10.6684C19.7074 10.6684 19.42 10.7454 19.1667 10.8917L13.3333 14.225C13.0802 14.3711 12.87 14.5813 12.7237 14.8343C12.5775 15.0873 12.5003 15.3744 12.5 15.6667V22.3333C12.5003 22.6256 12.5775 22.9126 12.7237 23.1657C12.87 23.4187 13.0802 23.6289 13.3333 23.775L19.1667 27.1083C19.42 27.2546 19.7074 27.3316 20 27.3316C20.2926 27.3316 20.58 27.2546 20.8333 27.1083L26.6667 23.775C26.9198 23.6289 27.13 23.4187 27.2763 23.1657C27.4225 22.9126 27.4997 22.6256 27.5 22.3333Z" fill="#78E08F"/>
<path d="M23.75 14.8333L16.25 10.5083" stroke="black" stroke-linecap="round" stroke-linejoin="round"/>
<path d="M27.5 20.3333V13.6667C27.4997 13.3744 27.4225 13.0873 27.2763 12.8343C27.13 12.5813 26.9198 12.3711 26.6667 12.225L20.8333 8.89166C20.58 8.74538 20.2926 8.66837 20 8.66837C19.7074 8.66837 19.42 8.74538 19.1667 8.89166L13.3333 12.225C13.0802 12.3711 12.87 12.5813 12.7237 12.8343C12.5775 13.0873 12.5003 13.3744 12.5 13.6667V20.3333C12.5003 20.6256 12.5775 20.9126 12.7237 21.1657C12.87 21.4187 13.0802 21.6289 13.3333 21.775L19.1667 25.1083C19.42 25.2546 19.7074 25.3316 20 25.3316C20.2926 25.3316 20.58 25.2546 20.8333 25.1083L26.6667 21.775C26.9198 21.6289 27.13 21.4187 27.2763 21.1657C27.4225 20.9126 27.4997 20.6256 27.5 20.3333Z" stroke="black" stroke-linecap="round" stroke-linejoin="round"/>
<path d="M12.725 12.8L20 17.0083L27.275 12.8" stroke="black" stroke-linecap="round" stroke-linejoin="round"/>
<path d="M20 25.4V17" stroke="black" stroke-linecap="round" stroke-linejoin="round"/>
</g>
<defs>
<clipPath id="clip0">
<rect width="20" height="20" fill="white" transform="translate(10 7)"/>
</clipPath>
</defs>
</svg>
