<svg width="41" height="51" viewBox="0 0 41 51" fill="none" xmlns="http://www.w3.org/2000/svg">
<path opacity="0.15" fill-rule="evenodd" clip-rule="evenodd" d="M32.4437 47.3224C37.3442 46.6442 40.5189 45.5586 40.5189 44.335C40.5189 42.28 31.5646 40.6141 20.5189 40.6141C9.47331 40.6141 0.519043 42.28 0.519043 44.335C0.519043 45.6533 4.20403 46.8114 9.76218 47.4724L6.76904 48.0559L21.4876 50.925L36.2062 48.0559L32.4437 47.3224Z" fill="black"/>
<mask id="path-2-inside-1" fill="white">
<path fill-rule="evenodd" clip-rule="evenodd" d="M32.416 37.8416C37.3322 34.1131 40.5189 28.1322 40.5189 21.3898C40.5189 10.0874 31.5646 0.925049 20.5189 0.925049C9.47331 0.925049 0.519043 10.0874 0.519043 21.3898C0.519043 28.5376 4.10037 34.8295 9.5271 38.4893L20.6566 49.9328L32.416 37.8416Z"/>
</mask>
<path fill-rule="evenodd" clip-rule="evenodd" d="M32.416 37.8416C37.3322 34.1131 40.5189 28.1322 40.5189 21.3898C40.5189 10.0874 31.5646 0.925049 20.5189 0.925049C9.47331 0.925049 0.519043 10.0874 0.519043 21.3898C0.519043 28.5376 4.10037 34.8295 9.5271 38.4893L20.6566 49.9328L32.416 37.8416Z" fill="black"/>
<path d="M32.416 37.8416L31.6342 36.8107L31.5565 36.8696L31.4886 36.9396L32.416 37.8416ZM9.5271 38.4893L10.4546 37.5873L10.3613 37.4915L10.2505 37.4167L9.5271 38.4893ZM20.6566 49.9328L19.7291 50.8348L20.6566 51.7885L21.584 50.8348L20.6566 49.9328ZM39.2251 21.3898C39.2251 27.7173 36.2361 33.3207 31.6342 36.8107L33.1978 38.8724C38.4284 34.9055 41.8126 28.5471 41.8126 21.3898H39.2251ZM20.5189 2.2188C30.8222 2.2188 39.2251 10.7737 39.2251 21.3898H41.8126C41.8126 9.40107 32.307 -0.368701 20.5189 -0.368701V2.2188ZM1.81279 21.3898C1.81279 10.7737 10.2157 2.2188 20.5189 2.2188V-0.368701C8.73093 -0.368701 -0.774707 9.40107 -0.774707 21.3898H1.81279ZM10.2505 37.4167C5.17219 33.9919 1.81279 28.0977 1.81279 21.3898H-0.774707C-0.774707 28.9775 3.02854 35.6672 8.80373 39.562L10.2505 37.4167ZM21.584 49.0308L10.4546 37.5873L8.59965 39.3913L19.7291 50.8348L21.584 49.0308ZM31.4886 36.9396L19.7291 49.0308L21.584 50.8348L33.3435 38.7436L31.4886 36.9396Z" fill="white" mask="url(#path-2-inside-1)"/>
<path d="M25.2065 19.3225L15.8315 13.9583" stroke="#78E08F" stroke-width="1.29375" stroke-linecap="round" stroke-linejoin="round"/>
<path d="M29.894 26.144V17.8755C29.8936 17.513 29.7971 17.1569 29.6143 16.8431C29.4315 16.5292 29.1687 16.2686 28.8523 16.0874L21.5607 11.9531C21.244 11.7717 20.8847 11.6761 20.519 11.6761C20.1533 11.6761 19.794 11.7717 19.4773 11.9531L12.1857 16.0874C11.8693 16.2686 11.6065 16.5292 11.4237 16.8431C11.2409 17.1569 11.1444 17.513 11.144 17.8755V26.144C11.1444 26.5065 11.2409 26.8626 11.4237 27.1764C11.6065 27.4902 11.8693 27.7509 12.1857 27.9321L19.4773 32.0664C19.794 32.2478 20.1533 32.3433 20.519 32.3433C20.8847 32.3433 21.244 32.2478 21.5607 32.0664L28.8523 27.9321C29.1687 27.7509 29.4315 27.4902 29.6143 27.1764C29.7971 26.8626 29.8936 26.5065 29.894 26.144Z" stroke="#78E08F" stroke-width="1.29375" stroke-linecap="round" stroke-linejoin="round"/>
<path d="M11.4253 16.8007L20.519 22.0202L29.6127 16.8007" stroke="#78E08F" stroke-width="1.29375" stroke-linecap="round" stroke-linejoin="round"/>
<path d="M20.519 32.4283V22.0099" stroke="#78E08F" stroke-width="1.29375" stroke-linecap="round" stroke-linejoin="round"/>
</svg>
