<svg width="32" height="40" viewBox="0 0 32 40" fill="none" xmlns="http://www.w3.org/2000/svg">
<mask id="path-1-inside-1" fill="white">
<path fill-rule="evenodd" clip-rule="evenodd" d="M26.4676 29.1202C29.8563 26.08 32 21.5895 32 16.5802C32 7.42323 24.8366 0 16 0C7.16344 0 0 7.42323 0 16.5802C0 21.1354 1.77268 25.2616 4.64218 28.2584L4.64001 28.2606L15.9686 40L26.4676 29.1202Z"/>
</mask>
<path fill-rule="evenodd" clip-rule="evenodd" d="M26.4676 29.1202C29.8563 26.08 32 21.5895 32 16.5802C32 7.42323 24.8366 0 16 0C7.16344 0 0 7.42323 0 16.5802C0 21.1354 1.77268 25.2616 4.64218 28.2584L4.64001 28.2606L15.9686 40L26.4676 29.1202Z" fill="white"/>
<path d="M26.4676 29.1202L25.7998 28.3758L25.7731 28.3999L25.7481 28.4258L26.4676 29.1202ZM4.64218 28.2584L5.36171 28.9528L6.02933 28.2611L5.36446 27.5667L4.64218 28.2584ZM4.64001 28.2606L3.92049 27.5661L3.25027 28.2605L3.92043 28.955L4.64001 28.2606ZM15.9686 40L15.249 40.6944L15.9686 41.4401L16.6882 40.6944L15.9686 40ZM31 16.5802C31 21.3001 28.9811 25.5217 25.7998 28.3758L27.1354 29.8645C30.7315 26.6383 33 21.8789 33 16.5802H31ZM16 1C24.251 1 31 7.94163 31 16.5802H33C33 6.90482 25.4221 -1 16 -1V1ZM1 16.5802C1 7.94163 7.74901 1 16 1V-1C6.57788 -1 -1 6.90482 -1 16.5802H1ZM5.36446 27.5667C2.66948 24.7523 1 20.8724 1 16.5802H-1C-1 21.3985 0.875891 25.771 3.91991 28.95L5.36446 27.5667ZM5.35954 28.9551L5.36171 28.9528L3.92265 27.5639L3.92049 27.5661L5.35954 28.9551ZM16.6882 39.3056L5.3596 27.5662L3.92043 28.955L15.249 40.6944L16.6882 39.3056ZM25.7481 28.4258L15.249 39.3056L16.6882 40.6944L27.1872 29.8146L25.7481 28.4258Z" fill="black" mask="url(#path-1-inside-1)"/>
</svg>
