<svg width="49" height="49" viewBox="0 0 49 49" fill="none" xmlns="http://www.w3.org/2000/svg">
<ellipse cx="24.4313" cy="24.7681" rx="24" ry="23.9217" transform="rotate(-0.518438 24.4313 24.7681)" fill="#78E08F"/>
<path d="M13.4593 35.3081C13.4877 38.452 10.953 41.0292 7.79096 41.0578C4.6289 41.0864 2.04799 38.5555 2.01954 35.4116C1.99109 32.2678 4.52579 29.6905 7.68784 29.6619C10.8499 29.6333 13.4308 32.1643 13.4593 35.3081Z" stroke="black" stroke-width="1.98837"/>
<path d="M45.3509 35.019C45.3793 38.1629 42.8446 40.7402 39.6826 40.7688C36.5205 40.7974 33.9396 38.2664 33.9111 35.1226C33.8827 31.9787 36.4174 29.4015 39.5794 29.3728C42.7415 29.3442 45.3224 31.8752 45.3509 35.019Z" stroke="black" stroke-width="1.98837"/>
<mask id="path-4-inside-1_12978_11801" fill="white">
<ellipse cx="7.73954" cy="35.359" rx="1.67857" ry="1.67309" transform="rotate(-0.518438 7.73954 35.359)"/>
</mask>
<path d="M7.42975 35.3618C7.42812 35.1816 7.57172 35.0452 7.73668 35.0437L7.77267 39.0203C9.79165 39.0021 11.4247 37.354 11.4063 35.3258L7.42975 35.3618ZM7.73668 35.0437C7.90165 35.0423 8.04769 35.176 8.04932 35.3562L4.07275 35.3922C4.0911 37.4204 5.75368 39.0386 7.77267 39.0203L7.73668 35.0437ZM8.04932 35.3562C8.05096 35.5364 7.90735 35.6728 7.74239 35.6743L7.70641 31.6977C5.68742 31.716 4.0544 33.364 4.07275 35.3922L8.04932 35.3562ZM7.74239 35.6743C7.57743 35.6758 7.43138 35.542 7.42975 35.3618L11.4063 35.3258C11.388 33.2976 9.72539 31.6794 7.70641 31.6977L7.74239 35.6743Z" fill="black" mask="url(#path-4-inside-1_12978_11801)"/>
<path d="M30.1322 36.5508L14.7485 36.9689L5.9804 26.4515C9.71637 18.8327 16.5377 18.269 19.615 18.2412C15.1894 23.8585 16.0909 30.7289 17.2335 33.3212L22.269 33.2756L25.0311 29.3466L23.5417 27.646C22.7949 26.7933 23.3935 25.4574 24.5269 25.4471L29.1921 25.4049L40.8962 20.2795C41.1462 23.1774 42.7024 24.0743 43.4492 24.1605L42.9074 26.1174L30.1322 36.5508Z" fill="white" stroke="black" stroke-width="1.98837"/>
<path d="M27.8512 22.0704L26.1065 22.0861C24.7212 22.0987 23.4615 22.8919 22.8515 24.1358C22.5516 24.7474 23.0007 25.4606 23.6818 25.4544L29.1921 25.4046L41.1734 19.9978L33.6201 20.0661L28.7636 21.8996C28.4718 22.0097 28.163 22.0675 27.8512 22.0704Z" stroke="black" stroke-width="1.98837"/>
<path d="M43.911 19.9739L36.7577 20.0386C34.5615 20.0585 32.765 18.2942 32.7451 16.098L32.701 11.2246C32.6811 9.02842 34.4454 7.23194 36.6416 7.21206L43.795 7.14734C45.9912 7.12746 47.7876 8.89173 47.8075 11.0879L47.8516 15.9613C47.8715 18.1575 46.1072 19.954 43.911 19.9739Z" stroke="black" stroke-width="1.98837"/>
<path d="M32.7002 11.1523L47.8067 11.0156" stroke="black" stroke-width="1.98837"/>
<path d="M19.8928 17.961L12.6193 18.0268C12.5931 15.1269 14.6363 14.1974 15.6612 14.0952L17.2064 14.0812C18.6706 14.068 19.8682 15.2441 19.8815 16.7083L19.8928 17.961Z" stroke="black" stroke-width="1.98837"/>
<path d="M16.2555 17.9947L16.1924 11.0238M16.1924 11.0238L16.1887 10.6151C16.174 8.99284 17.4772 7.66583 19.0995 7.65115V7.65115C19.6402 7.64626 20.0826 8.08066 20.0875 8.62142L20.0969 9.66282C20.1035 10.3949 19.5154 10.9937 18.7834 11.0003L16.1924 11.0238Z" stroke="black" stroke-width="1.98837"/>
<path d="M3.31049 27.2579C4.18409 26.8499 5.17657 26.6094 5.97991 26.4517L7.67859 28.6672L3.86916 28.7017C2.83799 28.711 2.37616 27.6943 3.31049 27.2579Z" stroke="black" stroke-width="1.98837"/>
<path d="M32.192 35.8169L34.6455 33.8791L39.9066 33.8315C40.4356 33.8267 40.8682 34.2516 40.873 34.7805C40.8778 35.3095 40.4529 35.7421 39.924 35.7469L32.192 35.8169Z" stroke="black" stroke-width="1.98837"/>
<line y1="-0.994184" x2="3.25473" y2="-0.994184" transform="matrix(-0.523463 -0.852048 0.853554 -0.521005 39.6113 32.8398)" stroke="black" stroke-width="1.98837"/>
<line y1="-0.994184" x2="3.15998" y2="-0.994184" transform="matrix(0.701844 -0.712331 0.714619 0.699514 8.85449 34.7949)" stroke="black" stroke-width="1.98837"/>
<line x1="0.994184" y1="-0.994184" x2="2.75676" y2="-0.994184" transform="matrix(0.899009 0.437929 -0.440277 0.897862 42.9082 26.1172)" stroke="black" stroke-width="1.98837" stroke-linecap="round"/>
<line x1="32.7166" y1="12.9473" x2="47.8231" y2="12.8106" stroke="black" stroke-width="1.98837"/>
<line x1="37.0723" y1="13.3445" x2="37.1328" y2="20.0366" stroke="black" stroke-width="1.98837"/>
<line x1="44.9053" y1="13.2742" x2="44.9658" y2="19.9663" stroke="black" stroke-width="1.98837"/>
</svg>
