<svg width="406" height="39" viewBox="0 0 406 39" fill="none" xmlns="http://www.w3.org/2000/svg">
<path d="M28.976 30.032C28.656 29.68 28.112 29.648 27.792 29.968C27.696 30.032 18.48 38.256 5.584 35.92C3.408 35.536 2.288 34.704 2.288 33.488C2.256 31.248 5.744 27.984 8.048 27.536C8.752 27.312 9.52 27.44 10.16 27.856C10.608 28.304 10.864 28.944 10.864 29.616C10.864 30.064 11.216 30.448 11.664 30.448C12.144 30.448 12.496 30.096 12.528 29.648C12.56 28.496 12.08 27.376 11.248 26.576C10.224 25.808 8.944 25.552 7.728 25.904C4.944 26.416 0.592 30.128 0.624 33.52C0.624 34.736 1.232 36.848 5.296 37.584C6.928 37.872 8.592 38.032 10.288 38.032C17.072 37.968 23.664 35.568 28.912 31.216C29.072 31.056 29.168 30.832 29.2 30.64C29.2 30.416 29.104 30.192 28.976 30.032ZM54.127 30.256C53.807 29.904 53.263 29.872 52.911 30.192C52.815 30.288 43.311 38.832 37.423 34.96C35.087 33.424 34.511 29.712 34.511 29.68C34.479 29.296 34.191 29.008 33.807 28.944C33.455 28.912 33.071 29.104 32.911 29.424C31.407 32.752 28.751 36.976 28.015 36.496C27.951 36.496 27.823 36.368 27.727 36.144C27.343 35.088 27.471 33.936 28.015 32.944C29.231 30.448 31.471 28.656 34.159 27.984C34.447 27.92 34.671 27.696 34.767 27.408C34.863 27.12 34.767 26.8 34.575 26.576C34.351 26.384 34.063 26.288 33.775 26.352C30.575 27.12 27.919 29.296 26.479 32.24C25.711 33.68 25.615 35.408 26.223 36.912C26.511 37.648 27.215 38.16 28.015 38.16H28.047C29.615 38.128 31.567 36.176 32.911 34.064C33.071 33.808 33.359 33.68 33.647 33.712C33.935 33.712 34.191 33.872 34.319 34.128C34.863 35.024 35.599 35.792 36.495 36.336C43.471 40.976 53.615 31.824 54.063 31.44C54.223 31.28 54.319 31.056 54.319 30.864C54.351 30.64 54.255 30.416 54.127 30.256ZM82.9908 30.672C82.8308 30.512 82.6388 30.448 82.4148 30.416C82.1908 30.416 81.9668 30.512 81.8068 30.672C76.9748 35.408 69.9348 37.04 66.9908 36.112C64.4948 35.312 63.3428 33.04 62.8308 30.64C62.7348 30.096 62.8308 29.584 63.1188 29.136C66.9588 22.608 71.0228 13.2 69.6147 10.928C69.2948 10.416 68.7188 10.16 68.1108 10.256C64.5588 10.704 61.5188 18.064 60.9108 24.624C60.7828 26.032 60.7828 27.408 60.8788 28.784C60.9108 29.232 60.8148 29.68 60.5588 30.064C60.3668 30.384 60.1428 30.736 59.9188 31.056C57.1028 35.216 55.1828 36.56 54.3828 36.464C53.9668 36.432 53.6148 36.144 53.5188 35.76C53.1988 34.128 53.5828 32.464 54.5108 31.12C55.1828 30.32 56.1748 29.424 57.1348 29.616C57.6788 29.776 58.1268 30.192 58.3508 30.704C58.4468 31.152 58.8628 31.472 59.3108 31.408C59.7588 31.344 60.0788 30.928 60.0148 30.448C59.6948 29.296 58.8308 28.4 57.6788 28.048C56.6868 27.728 55.0868 27.856 53.2308 30.032C52.2067 31.216 51.1827 34.352 51.9507 36.368C52.2707 37.328 53.1348 38 54.1268 38.128C54.2228 38.128 54.3508 38.128 54.4468 38.128C56.1428 38.128 58.2868 36.304 60.8148 32.688C60.9108 32.56 61.1028 32.464 61.2948 32.496C61.4868 32.496 61.6468 32.624 61.7108 32.784C62.4148 35.12 64.2068 36.944 66.4788 37.712C70.2548 38.896 77.9348 36.784 82.9908 31.856C83.3108 31.536 83.3108 31.024 82.9908 30.672ZM62.6068 24.784C63.1188 18.928 65.4548 13.776 67.4388 12.304C67.5988 12.208 67.8228 12.176 68.0148 12.304C68.1748 12.4 68.2708 12.592 68.2708 12.784C67.9828 15.216 66.2548 19.6 63.0548 25.296C62.5428 26.128 62.5428 25.36 62.6068 24.784ZM108.596 30.256C108.276 29.904 107.732 29.872 107.38 30.192C107.284 30.288 97.7798 38.832 91.8918 34.96C89.5558 33.424 88.9798 29.712 88.9798 29.68C88.9478 29.296 88.6598 29.008 88.2758 28.944C87.9238 28.912 87.5398 29.104 87.3798 29.424C85.8758 32.752 83.2198 36.976 82.4838 36.496C82.4198 36.496 82.2918 36.368 82.1958 36.144C81.8117 35.088 81.9398 33.936 82.4838 32.944C83.6998 30.448 85.9398 28.656 88.6278 27.984C88.9158 27.92 89.1398 27.696 89.2358 27.408C89.3318 27.12 89.2358 26.8 89.0438 26.576C88.8198 26.384 88.5318 26.288 88.2438 26.352C85.0438 27.12 82.3878 29.296 80.9477 32.24C80.1797 33.68 80.0837 35.408 80.6917 36.912C80.9797 37.648 81.6837 38.16 82.4838 38.16H82.5158C84.0838 38.128 86.0358 36.176 87.3798 34.064C87.5398 33.808 87.8278 33.68 88.1158 33.712C88.4038 33.712 88.6598 33.872 88.7878 34.128C89.3318 35.024 90.0677 35.792 90.9638 36.336C97.9398 40.976 108.084 31.824 108.532 31.44C108.692 31.28 108.788 31.056 108.788 30.864C108.82 30.64 108.724 30.416 108.596 30.256ZM130.14 29.136C129.98 28.976 129.788 28.912 129.564 28.912C129.34 28.912 129.116 28.976 128.956 29.136C125.884 32.048 122.108 34.096 117.98 35.088C117.82 35.152 117.628 35.088 117.532 34.96C117.436 34.8 117.404 34.64 117.5 34.48C118.076 33.36 117.948 32.016 117.212 30.992C116.764 30.384 116.188 29.872 115.516 29.488C114.62 28.88 113.628 28.176 113.596 27.44C113.628 27.024 113.788 26.64 114.076 26.32L115.804 24.688C116.124 24.368 116.156 23.856 115.868 23.536C115.58 23.184 115.1 23.12 114.716 23.408C114.044 23.92 113.404 24.496 112.86 25.168L107.931 29.776C107.707 29.968 107.611 30.288 107.675 30.576C107.739 30.896 107.963 31.12 108.252 31.216C108.54 31.28 108.86 31.216 109.084 30.992L111.516 28.72C111.644 28.592 111.804 28.56 111.964 28.56C112.124 28.592 112.252 28.688 112.316 28.816C112.924 29.648 113.692 30.352 114.556 30.864C115.036 31.152 115.452 31.472 115.804 31.888C116.124 32.24 116.284 32.72 116.188 33.2C116.092 33.68 115.804 34.096 115.388 34.32C113.34 35.472 110.748 34.928 109.34 33.04C109.116 32.688 108.604 32.56 108.22 32.816C107.835 33.04 107.707 33.52 107.931 33.936C108.988 35.76 110.876 36.944 112.988 37.104C113.532 37.2 114.044 37.232 114.588 37.232C119.996 37.232 126.652 33.84 130.14 30.32C130.46 30 130.46 29.456 130.14 29.136ZM150.827 29.296C150.507 28.976 149.963 28.976 149.643 29.328C149.579 29.392 140.907 38.128 135.147 35.952C132.587 34.96 131.499 31.984 131.083 29.04C131.659 27.632 132.619 25.296 133.515 22.672C133.611 22.352 133.707 22.32 134.091 22.288C138.411 21.968 142.699 21.808 145.227 21.808C145.707 21.808 146.059 21.424 146.059 20.976C146.059 20.496 145.707 20.144 145.227 20.144C142.795 20.144 138.795 20.336 134.699 20.56C134.539 20.592 134.251 20.496 134.475 19.92C136.011 15.536 137.099 11.088 136.427 9.744C135.755 8.4 134.859 8.368 134.411 8.464C132.043 8.912 130.315 15.056 129.547 20.08C129.483 20.528 129.259 20.912 128.843 20.944C123.819 21.328 119.691 21.616 119.627 21.616C119.147 21.648 118.795 22.032 118.827 22.512C118.827 22.96 119.211 23.344 119.691 23.312H119.755C119.851 23.312 123.723 23.024 128.555 22.672C128.715 22.64 128.875 22.672 129.003 22.8C129.131 22.896 129.227 23.056 129.227 23.216C128.747 30.832 130.667 36.048 134.539 37.52C135.371 37.808 136.235 37.968 137.131 37.968C143.467 37.968 150.507 30.832 150.859 30.512C151.019 30.352 151.083 30.128 151.083 29.904C151.083 29.68 150.987 29.456 150.827 29.296ZM131.243 20.016C131.979 15.152 133.451 11.312 134.315 10.32C134.411 10.256 134.539 10.224 134.667 10.256C134.763 10.288 134.859 10.352 134.923 10.48C135.307 11.312 134.219 15.376 132.587 20.208C132.523 20.496 132.299 20.72 131.979 20.752C131.819 20.784 131.659 20.784 131.467 20.784C131.147 20.784 131.211 20.272 131.243 20.048V20.016ZM130.859 25.04C130.539 25.04 130.667 22.8 130.955 22.48C131.211 22.32 131.531 22.288 131.787 22.448C132.075 22.704 131.211 25.04 130.859 25.04ZM176.897 29.584C176.737 29.424 176.545 29.328 176.321 29.328C176.097 29.328 175.873 29.424 175.713 29.584C170.177 34.992 160.353 36.144 158.241 34.896C156.801 34.064 156.961 33.072 157.985 31.088C158.465 30.128 159.009 29.008 158.081 28.336C157.217 27.696 156.385 28.112 155.649 28.496C154.593 29.104 153.409 29.424 152.161 29.424C151.873 29.424 151.617 28.912 151.681 28.72C153.473 24.784 152.673 24.048 152.385 23.76C151.905 23.28 151.169 23.312 150.273 23.856C148.8 24.912 148.16 26.8 148.672 28.56C148.8 29.04 149.024 29.488 149.345 29.872C149.312 30.224 149.473 30.544 149.793 30.704C149.985 30.8 150.209 30.8 150.433 30.736C150.977 30.992 151.585 31.12 152.193 31.12C153.505 31.152 154.785 30.864 155.937 30.224C156.385 30 156.545 30.192 156.481 30.32C155.713 31.824 154.337 34.576 157.409 36.368C158.497 36.88 159.713 37.104 160.929 37.008C165.409 37.008 172.449 35.088 176.865 30.768C177.025 30.64 177.121 30.416 177.121 30.192C177.153 29.968 177.057 29.744 176.897 29.584ZM150.241 27.824C150.049 26.896 150.368 25.936 151.105 25.328C150.881 26.192 150.593 27.024 150.241 27.856V27.824ZM198.391 28.912C198.231 28.752 198.039 28.688 197.815 28.688C197.591 28.688 197.367 28.752 197.207 28.912C193.367 32.752 187.927 34.512 182.583 33.616C182.167 33.52 181.879 33.136 181.943 32.72C182.199 31.184 182.071 29.616 181.175 29.104C180.599 28.784 179.735 28.752 178.711 30.48C178.327 31.056 178.199 31.76 178.327 32.432C178.487 33.104 178.903 33.712 179.479 34.064C179.831 34.352 179.415 34.832 179.191 35.056C178.583 35.792 177.527 35.92 176.791 35.344C175.863 34.928 175.447 33.904 175.799 32.976C176.215 31.28 177.879 29.808 178.487 29.808C178.935 29.808 179.319 29.424 179.319 28.976C179.351 28.528 178.967 28.144 178.519 28.112H178.487C176.887 28.112 174.742 30.288 174.166 32.56C173.622 34.224 174.39 36.048 175.991 36.816C176.599 37.168 177.271 37.328 177.975 37.36C179.351 37.296 180.567 36.464 181.143 35.184C181.207 35.088 181.367 35.024 181.495 35.056C185.559 36.272 192.983 35.504 198.391 30.128C198.551 29.968 198.647 29.744 198.647 29.52C198.647 29.296 198.551 29.072 198.391 28.912ZM180.279 32.56C179.927 32.24 179.863 31.728 180.151 31.344C180.247 31.184 180.311 31.088 180.375 30.992C180.407 31.504 180.375 32.048 180.279 32.56ZM235.942 29.776C235.782 29.616 235.59 29.488 235.366 29.488C235.142 29.456 234.918 29.52 234.758 29.648C234.63 29.744 222.31 39.536 212.038 35.312C209.958 34.448 209.862 33.328 209.926 32.72C209.926 32.624 209.958 32.528 210.054 32.464C210.118 32.4 210.246 32.4 210.342 32.432C212.422 32.56 214.502 32.016 216.294 30.896C217.83 29.904 218.086 28.816 217.99 28.112C217.926 26.96 216.998 26.032 215.814 26C213.286 25.872 209.062 28.88 208.358 32.08C208.07 33.264 208.102 35.504 211.398 36.848C213.414 37.68 215.526 38.064 217.67 38.064C226.854 38.064 235.366 31.312 235.814 30.96C235.974 30.832 236.102 30.608 236.102 30.416C236.134 30.192 236.07 29.968 235.942 29.776ZM211.078 30.48C212.326 28.752 214.406 27.6 215.718 27.696C216.07 27.696 216.262 27.824 216.326 28.304C216.358 28.624 216.006 29.072 215.366 29.488C214.054 30.352 210.118 31.76 211.078 30.48ZM262.687 30.032C262.495 29.904 262.303 29.808 262.079 29.808C261.855 29.84 261.631 29.936 261.503 30.096C261.407 30.16 254.367 37.68 248.255 35.216C246.943 34.512 245.887 33.456 245.151 32.144C244.895 31.728 244.575 31.312 244.191 30.928C243.775 30.416 243.135 30.128 242.463 30.096C240.831 29.968 238.847 31.056 236.479 33.296C236.415 33.36 236.319 33.392 236.223 33.328C236.127 33.296 236.063 33.168 236.095 33.072L236.799 29.936C236.927 29.488 236.639 29.008 236.191 28.912C235.743 28.816 235.295 29.104 235.167 29.552L233.567 36.56C233.471 36.944 233.663 37.328 234.015 37.488C234.367 37.68 234.783 37.584 235.039 37.296C239.327 32.272 241.503 31.792 242.271 31.76C243.039 31.728 243.519 32.72 243.775 33.104C244.671 34.672 246.015 35.952 247.615 36.752C254.783 39.664 262.399 31.568 262.719 31.216C263.039 30.896 263.007 30.352 262.687 30.032ZM289.695 29.904C289.535 29.744 289.311 29.648 289.119 29.648C288.895 29.648 288.671 29.744 288.511 29.904C285.823 32.592 280.319 35.344 275.903 35.248C274.143 35.312 272.415 34.64 271.167 33.36C271.135 33.328 271.071 33.264 271.039 33.2C271.007 33.104 271.007 33.008 271.039 32.88C271.679 31.76 272.063 30.48 272.095 29.168C272.095 28.528 271.711 27.952 271.103 27.696C270.271 27.248 269.183 27.472 268.639 28.272C267.903 29.328 268.159 31.312 268.895 32.88C268.927 33.008 268.927 33.104 268.895 33.232C268.383 34.032 267.775 34.736 267.103 35.376C266.431 35.984 265.471 36.592 264.735 36.176C263.103 34.608 263.071 30.736 263.199 29.392C263.231 28.944 262.911 28.528 262.463 28.496C262.015 28.432 261.599 28.752 261.535 29.232C261.535 29.456 260.991 35.056 263.647 37.488C263.679 37.52 263.743 37.552 263.775 37.552C264.223 37.84 264.735 38 265.247 38C265.951 38 266.623 37.776 267.199 37.392C268.095 36.784 268.895 36.016 269.567 35.152C269.695 35.024 269.887 34.928 270.079 34.928C270.271 34.928 270.463 34.992 270.591 35.152C272.063 36.336 273.951 36.976 275.871 36.944C280.991 37.072 286.783 34 289.695 31.088C289.855 30.928 289.951 30.704 289.951 30.48C289.951 30.256 289.855 30.064 289.695 29.904ZM270.111 30.832C270.079 30.896 269.983 30.896 269.983 30.832C269.823 30.32 269.823 29.744 270.015 29.232C270.079 29.168 270.143 29.104 270.239 29.104C270.303 29.136 270.367 29.168 270.431 29.232C270.431 29.808 270.335 30.352 270.111 30.832ZM308.986 29.36C308.634 29.04 308.122 29.04 307.802 29.392C307.674 29.488 297.306 40.048 290.426 35.024C288.314 33.488 290.362 29.488 290.394 29.456C290.586 29.04 290.426 28.56 290.01 28.336C289.594 28.144 289.114 28.272 288.89 28.688C288.762 28.88 286.17 33.968 289.434 36.368C290.938 37.488 292.794 38.096 294.682 38.064C301.594 38.064 308.602 30.928 308.986 30.544C309.146 30.384 309.242 30.192 309.242 29.968C309.21 29.744 309.146 29.52 308.986 29.36ZM288.538 26.832C288.666 26.832 288.794 26.8 288.922 26.736C289.69 26.352 290.362 25.84 290.97 25.232C291.29 24.88 291.258 24.368 290.938 24.048C290.586 23.728 290.074 23.728 289.754 24.08C289.274 24.56 288.73 24.944 288.122 25.264C287.802 25.424 287.61 25.84 287.706 26.192C287.802 26.576 288.154 26.832 288.538 26.832ZM333.377 30.256C333.057 29.904 332.513 29.872 332.161 30.192C332.065 30.288 322.561 38.832 316.673 34.96C314.337 33.424 313.761 29.712 313.761 29.68C313.729 29.296 313.441 29.008 313.057 28.944C312.705 28.912 312.321 29.104 312.161 29.424C310.657 32.752 308.001 36.976 307.265 36.496C307.201 36.496 307.073 36.368 306.977 36.144C306.593 35.088 306.721 33.936 307.265 32.944C308.481 30.448 310.721 28.656 313.409 27.984C313.697 27.92 313.921 27.696 314.017 27.408C314.113 27.12 314.017 26.8 313.825 26.576C313.601 26.384 313.313 26.288 313.025 26.352C309.825 27.12 307.169 29.296 305.729 32.24C304.961 33.68 304.865 35.408 305.473 36.912C305.761 37.648 306.465 38.16 307.265 38.16H307.297C308.865 38.128 310.817 36.176 312.161 34.064C312.321 33.808 312.609 33.68 312.897 33.712C313.185 33.712 313.441 33.872 313.569 34.128C314.113 35.024 314.849 35.792 315.745 36.336C322.721 40.976 332.865 31.824 333.313 31.44C333.473 31.28 333.569 31.056 333.569 30.864C333.601 30.64 333.505 30.416 333.377 30.256ZM362.241 30.672C362.081 30.512 361.889 30.448 361.665 30.416C361.441 30.416 361.217 30.512 361.057 30.672C356.225 35.408 349.185 37.04 346.241 36.112C343.745 35.312 342.593 33.04 342.081 30.64C341.985 30.096 342.081 29.584 342.369 29.136C346.209 22.608 350.273 13.2 348.865 10.928C348.545 10.416 347.969 10.16 347.361 10.256C343.809 10.704 340.769 18.064 340.161 24.624C340.033 26.032 340.033 27.408 340.129 28.784C340.161 29.232 340.065 29.68 339.809 30.064C339.617 30.384 339.393 30.736 339.169 31.056C336.353 35.216 334.433 36.56 333.633 36.464C333.217 36.432 332.865 36.144 332.769 35.76C332.449 34.128 332.833 32.464 333.761 31.12C334.433 30.32 335.425 29.424 336.385 29.616C336.929 29.776 337.377 30.192 337.601 30.704C337.697 31.152 338.113 31.472 338.561 31.408C339.009 31.344 339.329 30.928 339.265 30.448C338.945 29.296 338.081 28.4 336.929 28.048C335.937 27.728 334.337 27.856 332.481 30.032C331.457 31.216 330.433 34.352 331.201 36.368C331.521 37.328 332.385 38 333.377 38.128C333.473 38.128 333.601 38.128 333.697 38.128C335.393 38.128 337.537 36.304 340.065 32.688C340.161 32.56 340.353 32.464 340.545 32.496C340.737 32.496 340.897 32.624 340.961 32.784C341.665 35.12 343.457 36.944 345.729 37.712C349.505 38.896 357.185 36.784 362.241 31.856C362.561 31.536 362.561 31.024 362.241 30.672ZM341.857 24.784C342.369 18.928 344.705 13.776 346.689 12.304C346.849 12.208 347.073 12.176 347.265 12.304C347.425 12.4 347.521 12.592 347.521 12.784C347.233 15.216 345.505 19.6 342.305 25.296C341.793 26.128 341.793 25.36 341.857 24.784ZM384.422 28.912C384.262 28.752 384.07 28.688 383.846 28.688C383.622 28.688 383.398 28.752 383.238 28.912C379.398 32.752 373.958 34.512 368.614 33.616C368.198 33.52 367.91 33.136 367.974 32.72C368.23 31.184 368.102 29.616 367.206 29.104C366.63 28.784 365.766 28.752 364.742 30.48C364.358 31.056 364.23 31.76 364.358 32.432C364.518 33.104 364.934 33.712 365.51 34.064C365.862 34.352 365.446 34.832 365.222 35.056C364.614 35.792 363.558 35.92 362.822 35.344C361.894 34.928 361.478 33.904 361.83 32.976C362.246 31.28 363.91 29.808 364.518 29.808C364.966 29.808 365.35 29.424 365.35 28.976C365.382 28.528 364.998 28.144 364.55 28.112H364.518C362.918 28.112 360.774 30.288 360.198 32.56C359.654 34.224 360.422 36.048 362.022 36.816C362.63 37.168 363.302 37.328 364.006 37.36C365.382 37.296 366.598 36.464 367.174 35.184C367.238 35.088 367.398 35.024 367.526 35.056C371.59 36.272 379.014 35.504 384.422 30.128C384.582 29.968 384.678 29.744 384.678 29.52C384.678 29.296 384.582 29.072 384.422 28.912ZM366.31 32.56C365.958 32.24 365.894 31.728 366.182 31.344C366.278 31.184 366.342 31.088 366.406 30.992C366.438 31.504 366.406 32.048 366.31 32.56ZM405.331 0.911999C405.139 0.783997 404.915 0.719997 404.691 0.751999C404.467 0.815998 404.275 0.943996 404.147 1.136C397.587 10.64 391.923 20.752 387.251 31.312C387.123 31.6 387.155 31.92 387.315 32.176C387.507 32.4 387.795 32.56 388.115 32.496C388.403 32.464 388.659 32.272 388.787 31.984C393.427 21.52 399.027 11.504 405.555 2.064C405.683 1.872 405.715 1.648 405.683 1.424C405.619 1.2 405.491 1.008 405.331 0.911999ZM387.443 34.544C386.451 35.056 385.619 35.792 384.979 36.688C384.691 37.04 384.755 37.584 385.139 37.84C385.523 38.128 386.035 38.064 386.323 37.68C386.803 37.008 387.411 36.464 388.115 36.08C388.563 35.92 388.755 35.408 388.563 34.992C388.371 34.576 387.859 34.384 387.443 34.544Z" fill="#6CE787"/>
</svg>
